<svg xmlns="http://www.w3.org/2000/svg" width="150" height="3.86" viewBox="0 0 150 3.86">
  <defs>
    <style>
      .cls-1 {
        fill: #d9202d;
      }
    </style>
  </defs>
  <title>Ресурс 6@</title>
  <g id="Слой_2" data-name="Слой 2">
    <g id="Слой_1-2" data-name="Слой 1">
      <g>
        <g>
          <path class="cls-1" d="M149.82.71c.23,0,.15-.19.18-.23C149.63.53,149.83.77,149.82.71Z"/>
          <polygon class="cls-1" points="146.17 1.19 146.23 1.1 145.69 1.31 146.17 1.19"/>
          <path class="cls-1" d="M142.75,1.18c.32.36,1.24-.05,1.85.07l.1.08.27-.28A12.94,12.94,0,0,1,142.75,1.18Z"/>
          <path class="cls-1" d="M140.93.41c.11.14-.4.12.42.05l-.07,0Z"/>
          <path class="cls-1" d="M141.28.42c.36,0-.24-.12,0,0Z"/>
          <path class="cls-1" d="M139.61.5l.48-.12c-.1-.09-.52-.11-.37-.16C139.24.28,139.34.36,139.61.5Z"/>
          <path class="cls-1" d="M139.16.76l.25-.05S139.3.66,139.16.76Z"/>
          <path class="cls-1" d="M139.93.6l-.52.11c.07.05.08.17.24,0C139.61.77,139.71.67,139.93.6Z"/>
          <path class="cls-1" d="M140.23.65c.26.08.61.13.13.25C141.27.85,141.13.6,140.23.65Z"/>
          <path class="cls-1" d="M142.58,1.55l.35.11.31-.12C143.09,1.6,142.55,1.44,142.58,1.55Z"/>
          <path class="cls-1" d="M136.66.31c0,.08.16.21.19.3l.35-.08C137,.48,136.68.43,136.66.31Z"/>
          <path class="cls-1" d="M136.85.61l-.52.13C136.8.76,136.88.7,136.85.61Z"/>
          <polygon class="cls-1" points="139.08 1.16 139.94 0.88 138.91 1.16 139.08 1.16"/>
          <polygon class="cls-1" points="134.66 0.3 134.95 0.13 134.43 0.4 134.66 0.3"/>
          <path class="cls-1" d="M133.33.34c.22-.15-.3-.25-.07-.34a3.3,3.3,0,0,0-.95.26A2.06,2.06,0,0,1,133.33.34Z"/>
          <path class="cls-1" d="M131.85.43a3.25,3.25,0,0,0,.46-.17A2.14,2.14,0,0,0,131.85.43Z"/>
          <path class="cls-1" d="M135.44.71A.57.57,0,0,0,135,.49l.21.21Z"/>
          <path class="cls-1" d="M135.24.71h-.45Z"/>
          <path class="cls-1" d="M135.49.71h-.05S135.47.74,135.49.71Z"/>
          <path class="cls-1" d="M137.71,1c-.31.12-1,.25-.33.43C137.6,1.25,137.24,1.14,137.71,1Z"/>
          <path class="cls-1" d="M135.74,1l.56,0c0-.05-.11-.13,0-.19Z"/>
          <polygon class="cls-1" points="135.47 1.04 135.75 0.97 135.54 0.96 135.47 1.04"/>
          <path class="cls-1" d="M132.8.63a2.5,2.5,0,0,1-.8.11,7.89,7.89,0,0,0,1,.07C133,.74,133.14.62,132.8.63Z"/>
          <path class="cls-1" d="M134,.69h-.06S134,.72,134,.69Z"/>
          <path class="cls-1" d="M129.08.74l0,0s0,0,0,0Z"/>
          <path class="cls-1" d="M133,.85a.72.72,0,0,0,.51-.08,4.78,4.78,0,0,1-.57,0S132.94.86,133,.85Z"/>
          <path class="cls-1" d="M131,.53l.42.11C131.33.58,131.08.47,131,.53Z"/>
          <path class="cls-1" d="M133.85.64h0C133.81.58,133.82.61,133.85.64Z"/>
          <path class="cls-1" d="M133.85.64a1.53,1.53,0,0,0-.32.13,3.27,3.27,0,0,0,.4-.07Z"/>
          <path class="cls-1" d="M128.19,2.11c0-.2.67-.38,1.22-.17.53-.14.18-.8-.29-1.16,0,.09,0,.17-.56.28.19.11,1.22.26.75.44-.73.1-.59-.07-.95-.18.3.25-.92.36-.77.72l.64-.13C128.24,2,128,2.06,128.19,2.11Z"/>
          <path class="cls-1" d="M130.17.8l.23,0a2.9,2.9,0,0,1-.78-.27c-.38.09-.46.17-.49.23l1.12,0Z"/>
          <path class="cls-1" d="M131.41.78c-.17.21-.72.3-.38.54.66,0,.46-.18.86-.28-1.07.06.31-.12-.47-.24A4.23,4.23,0,0,1,132,.74a4.48,4.48,0,0,1-.55-.1l0,0h0s.06,0,0,0h0a.1.1,0,0,1-.05.08c-.31,0,0-.05.05-.08s0,0,0,0h0L130.4.78A6.54,6.54,0,0,0,131.41.78Z"/>
          <path class="cls-1" d="M136.8,1.86a.05.05,0,0,1,0-.05C136.7,1.83,136.67,1.85,136.8,1.86Z"/>
          <path class="cls-1" d="M136.36,1.73a.58.58,0,0,1,.4-.1c.22.07,0,.11,0,.18s.53-.16,0-.26l-.07,0c-.43-.08-1-.35-.91-.38A1.44,1.44,0,0,0,136.36,1.73Z"/>
          <path class="cls-1" d="M133.86,1.31l-.9.1.46.19,0-.11C133.9,1.53,133.79,1.39,133.86,1.31Z"/>
          <polygon class="cls-1" points="128.97 0.63 129.09 0.41 128.58 0.73 128.97 0.63"/>
          <polygon class="cls-1" points="127.81 0.66 127.86 0.46 127.55 0.58 127.81 0.66"/>
          <path class="cls-1" d="M62.24,3.12l-.27,0A1.08,1.08,0,0,0,62.24,3.12Z"/>
          <path class="cls-1" d="M64.14,3.13l0-.1C64.1,3.09,64.06,3.13,64.14,3.13Z"/>
          <path class="cls-1" d="M99.27.68c-.38-.18-.81-.47-.76-.24l.12.21A1.63,1.63,0,0,1,99.27.68Z"/>
          <path class="cls-1" d="M79.73,2l.11.06.26-.2Z"/>
          <path class="cls-1" d="M79.46,2.88,79,2.74A3.14,3.14,0,0,0,79.46,2.88Z"/>
          <path class="cls-1" d="M51.85,3.35l-.31.22C52,3.57,51.81,3.46,51.85,3.35Z"/>
          <path class="cls-1" d="M115.91.74a4.26,4.26,0,0,0-.82-.13C115.48.74,115.81.92,115.91.74Z"/>
          <path class="cls-1" d="M63,.81c-.17,0-.23.09-.23.14C62.93.91,63,.87,63,.81Z"/>
          <path class="cls-1" d="M114.13.61l.18.05a4.65,4.65,0,0,1,.78-.05A1.32,1.32,0,0,0,114.13.61Z"/>
          <path class="cls-1" d="M14.17,3.17l-.09,0S14.11,3.17,14.17,3.17Z"/>
          <path class="cls-1" d="M3.19,1a3,3,0,0,1,.45,0A1.92,1.92,0,0,0,3.19,1Z"/>
          <path class="cls-1" d="M123.14.57c.24,0,0,0,0,0Z"/>
          <path class="cls-1" d="M124.34,1.42c-.06,0-.1.06-.1.11A.21.21,0,0,1,124.34,1.42Z"/>
          <path class="cls-1" d="M111.68,2h0C111.73,2,111.72,2,111.68,2Z"/>
          <path class="cls-1" d="M123.51.67a2.21,2.21,0,0,0-.32-.07Z"/>
          <path class="cls-1" d="M123.46.56l.21,0S123.68.53,123.46.56Z"/>
          <path class="cls-1" d="M122.79.58l.4,0s-.07,0,0,0Z"/>
          <path class="cls-1" d="M34.36,2.59l-.06,0C34.06,2.66,34.16,2.64,34.36,2.59Z"/>
          <path class="cls-1" d="M92.86,2.94h0Z"/>
          <path class="cls-1" d="M92,3.1a.93.93,0,0,1,.88-.18l-.29-.63Z"/>
          <path class="cls-1" d="M57.68,3.18l.62.19c-.75.33-1.29.21-.71.49.09-.68,2.42-.07,2.51-.75l.41.14c-.12,0-.14,0-.26,0,.8.33.6-.49,1.62-.39.36,0,.61.15.37.23L63,3c.24,0,.18.13-.05.12L64.19,3V3a6.36,6.36,0,0,1,.75-.34c.31.1-.15.07-.07.16l.67-.17c.28.18-.28.35-.75.33.63.67.56-.18,1.92.22l-.64.09c.41.38.91.24,1.63.48-.17-.12-1.44-.6-.71-.77A1.51,1.51,0,0,0,67.86,3c0,.24.39.18.87.17l0,.32c.52-.1.48-.26.79-.4a.85.85,0,0,1,.83.48c.93,0-.64-.39.46-.45A5.74,5.74,0,0,0,73,2.89c.54.11-.09.19.1.28l.48-.25c.12,0,.08.08.06.12.41-.1,0-.32.67-.4.17-.36,1.3.51,2.09.11.19.09-.09.2,0,.32a8.45,8.45,0,0,0,1.81-.54l.75.21c-.55-.24.16-.53.78-.76-.2-.12-.37-.22-.48-.27l1-.17c.12.05,0,.16-.14.3l.18-.08c.35.12.17.3-.08.48L79.84,2c-.25.2-.47.41-.42.6a.74.74,0,0,1,.32-.08c-.06,0-.1.1-.07.13s.13,0,.29-.12l.23.35,0-.14,1.3.23a10.24,10.24,0,0,1,3.21-1c-.37.26-.08.43-.1.74-.4-.33-1.14.14-1.91.07.4,0,.32.18.21.23l1.36-.29c0,.25.29.19.65.29-.27-.5,1-.33,1.57-.49,0,.17-.1.34-.78.3.75.38,1-.58,1.7-.26-.17,0-.26,0-.32.06.38-.15,1.32,0,1.1.12h-.16c1.09.06,3.33,0,3.49-.42a2.16,2.16,0,0,1-.21.6l2-1.44c-.18.37.48,1.24-.42,1.45a2.38,2.38,0,0,0,1.13,0c-.18-.05-.44-.53-.2-.56a5.24,5.24,0,0,0,1.28.56c-.26-.08,0-.65.45-.63-.06.09,0,.57-.11.62l1-.56c-.26.1,0,.48.19.64-.11-.11.91,0,1.19,0l-.45-.13C98.6,2.89,98.58,2,99.76,2c-.15.12-.35.72.24.79a5.08,5.08,0,0,1,2.25-1.61l.2.16.8-.18a16.58,16.58,0,0,1-2.65,1.7c.44.13.12.19.79.18.23.15-.37.23-.56.24l1.54.1c-.07-.34,1.18-.34,1.13-.62l-1.68.35c-.07-.34,1-.95,2.06-.89.28.13-.21.59-.18.71a2.19,2.19,0,0,1,1.14-.14l-.47.18c.61.12,1-.45,1.73-.13.25,0,.75.43.8.24a1.83,1.83,0,0,1-.22-1.86,9.93,9.93,0,0,1,1.61.55c.42.3-.62.72-.27,1,0-.09.25-.21.34-.24.27.08-.11.28.47.24.1-.34,1.17,0,.27-.29.57-.1.6.07,1.26.06-.21-.22.6-.75,1.16-.85,0,.09.1.2.16.25,1.15,0,1.77.19,2.85.19.1.08.62.18.4.33a1.47,1.47,0,0,1,.63-.19c.64.3-.74,0-.25.41,0-.2.86-.28,1.33-.4-.14-.31-1.09-.06-1.57.06,0-.42.83-.86,2-1.06.9-.1.39.28.55.22,1.68.07,1.43-.74,2.83-.44.55.27,0,.54.15.73a7.82,7.82,0,0,1-1.62-.16l.61.13a1.91,1.91,0,0,1-1,.08c.46.24,2.84,0,4.13.27.24-.09.63-.18.44-.29l-.41,0c-.37-.22.78-.3.26-.41a4.33,4.33,0,0,1,1.94-.27l.15.31c0-.09-.51-.18-.73-.09.32-.13,1.19.42,1.54,0l-.54-.22a4.77,4.77,0,0,1,1.92-.38c-.31-.3-.15,0-.64-.32.42.44-1.76,0-1.08.45-.5-.42-.87-.18-1.52-.53,0,.1.23.19-.35.14a.38.38,0,0,1-.12.09h0s0,0,0,0a.74.74,0,0,1,.3.16c-.29.23-1.21.22-1.52.34-.34-.05.14-.12,0-.22l-.47.18c0-.23-.9-.38-.1-.51H121a3.13,3.13,0,0,0-1.38-.08c-.34-.05-.87.25-.57.07l-1.14.14V.7c-1.12,0-2.31.37-3.59,0a4.6,4.6,0,0,1-1.4.06l-.13-.19c-.48.07-1.45-.19-1.66,0-.53-.52-2.36-.12-3.21-.21l0,.26A11,11,0,0,0,106,.74L106,1a16.06,16.06,0,0,1-2.61-.14c.07-.08.32-.06.5,0-1.19-.51-2.51.37-3.59,0a1.1,1.1,0,0,1-.65,0h0L99.27.68a1.28,1.28,0,0,0,.32.12,8,8,0,0,0-.83.09L98.63.65h-.07c-.31-.09-.25.11-.09.29a1.86,1.86,0,0,0-.4.15c-.25-.39-.81.13-1.15-.28-.2.2-1.55.15-1.71.57,0,0-.1-.08.07-.08a2,2,0,0,0-1,0L94.14,1l-.75.42c-.46-.19-.65-.3-.2-.53-1.09.36-.88.13-1.81.49l.05-.2c-.34,0-.87.28-1.07.11-.74-.37-3.67-.05-5.58-.4.37.58-.88-.26-1,.19-.11-.14-.38-.21-.07-.33-1,.13-1.46-.22-2.13.16-.11-.14.21-.2.11-.29s-.31.12-.41,0,.14-.11.3-.17c-1,0-1.1.44-1.17.84a1,1,0,0,0-1.12.1c-.17-.13-.47-.26.15-.31-.35,0-2.12-.19-2.16.13a.92.92,0,0,0-.57,0c-.78,0-.85-.05-1.62,0l.22.05c-.31.39-.64.09-1.26.14l0,0c-1.41-.28-.61.13-2-.19l.08.24c-.13.52-1.24-.3-2.05-.1l.3.13c-.45.18-1.24-.7-1.68-.76-.1,0,.15-.07.28-.11-1.16-.3-.15.32-1,.39-.16-.17.2-.43-.38-.46C67.35.41,66,1.1,65.15.77c.18.13.35.26-.05.36-.62.05-1.67-.49-2.23-.08-.08,0-.11-.07-.11-.1a7,7,0,0,0-1.82.4C60.51.52,58,1.75,58,1L56.57,1l0-.08A2.42,2.42,0,0,0,55,1.26c-.22-.05-.06-.12,0-.16a4.33,4.33,0,0,0-2.63.26l-.12-.25c-.3.15-2-.39-3.28-.1,0,0,0-.07.14-.11-1.49.29-3.58-.69-4.13.22l-1,.22c1.27.07-.19.39.33.54-.5.05-1.3-.27-.68-.32l.1.05c.22-.47-1.59-.17-1.55-.49-2.52,0-5-.24-7.32-.26l.27.37-.82,0c-.21-.09-.29-.29.3-.27-.31-.21-1,.17-1,.25-1.15-.15.45-.43.1-.44l-.48,0,.11,0a1.87,1.87,0,0,1-1.13.29C31.78,1,32,.89,31.82.87c0,0-.06,0-.27,0l-1,0,.42.29c-.46.14-1,0-.5.31-.7-.5-3.85-.18-4.28-.33a6,6,0,0,1-2.07.18c.2.06.32.38-.36.34C24,1,22.48,1.33,21.93.85c.49.32-1.92.08-1.15.53-.57,0,0-.25-.47-.41-1.34.26-3-.17-4.62-.08,0,.09.25.22-.11.36L14.71.81c-.33,0-.31.5-.91.2.09.07.21.18,0,.21-3.25-.43-6.65.35-10-.45C4.28.94,4,1,3.64,1c.22,0,0,.22,0,.34L2.3,1C2,1.3.81,1,.67,1.31l.44-.06c-.59.37.81.83.73,1.31.65-.43,1.72.63,2.79,0,.24.1-.2.15-.08.26a1.53,1.53,0,0,1,1.21-.15l-.07.05A36.22,36.22,0,0,1,10.05,3l-.14-.24A2.1,2.1,0,0,1,10.6,3c.47-.36-1.16,0-.73-.41.55.48,2.91,0,3.28.55.63,0-.19-.27.44-.27l.17.15.16-.19c.42,0,.63.22.64.34a2.78,2.78,0,0,0-.39,0,7.71,7.71,0,0,0,1.7,0l-.61-.09c1.73-.14,3.85.06,5.52-.24l-.13-.11c1.28-.21,1,.12,2.42,0l-.05,0a2.77,2.77,0,0,1,1-.16c-.35.14.67.26.2.4,1.39-.22.69-.17,1.6-.59l.21.19a1.63,1.63,0,0,1,1-.3c-.57.15.45.28-.2.49,1.47.4,2.18-.41,2.86.18.67-.51-1.27-.28-.89-.39-.32-.17.55-.39,1-.33s.8.65,2,.64c-.12,0-.12,0-.24,0,.44.13.86-.18,1.41,0,.3-.31.7,0,.79-.38l-1.09.1a4.29,4.29,0,0,1,2.2-.35,2,2,0,0,1-.58.25c.29.11.57-.08.87,0-.08.4-1.31.09-2,.39.32.16,1.24-.29.91.14.48-.55,1.17.07,2-.35l-.06.24a1.9,1.9,0,0,1,.62-.14l-.42.3c.65-.26,1.25.23,1.87.09-1.3,0-.29-.29-.84-.46,1.6-.32.92.62,2.72.51-.25,0-.92-.14-.54-.25a3.3,3.3,0,0,1,1,.26c1.18,0-.19-.24.32-.39.4.29.58-.12,1.1-.21V3c1.35.16.36-.5,1.58-.31L43,3l.64-.09-.13.28a3,3,0,0,1,1.58-.08c-.16-.17.09-.43.69-.44.41.14-.23.23.62.19a.58.58,0,0,1-.77.12c0,.08-.19.15-.23.23a4,4,0,0,0,1.41,0,1.39,1.39,0,0,1-.33-.06l1.23-.33c.2.09,0,.16-.11.23A6.37,6.37,0,0,1,48.38,3c-.09.2-.07.4-.59.49L49,3.23c.08.08.61.23.46.3.65.12,1.59-.38,2.46-.23a.76.76,0,0,1,.31-.1,6.53,6.53,0,0,0,2.5,0l.54.35c.76-.08-.74-.44.52-.58.89-.11.33.3.64.4a2.78,2.78,0,0,1,2-.25A4.72,4.72,0,0,1,57.68,3.18ZM67,3c-.18,0-.54.21-.67.07C66.51,2.81,66.67,2.94,67,3Zm14.12-.58a.7.7,0,0,1-.57,0A1.44,1.44,0,0,1,81.09,2.44ZM120.44.76h0C120,.68,120.16.72,120.44.76Zm.83.11c.08,0,.08-.07,0-.1s-.24.06-.46,0C120.91.88,121,.92,121.27.87ZM31.72,1l.17.07C31.52,1.1,31.62,1,31.72,1Z"/>
          <path class="cls-1" d="M79.49,2.77a.19.19,0,0,1-.07-.13C79.35,2.68,79.34,2.73,79.49,2.77Z"/>
          <path class="cls-1" d="M51.9,3.31h0s0,0,0,.05Z"/>
          <path class="cls-1" d="M108.35,2.91a.92.92,0,0,1-.33-.12C108,2.85,108.09,2.9,108.35,2.91Z"/>
          <path class="cls-1" d="M125.69.46l-.54.06a1.09,1.09,0,0,1,.48.08C125.62.54,125.52.46,125.69.46Z"/>
          <path class="cls-1" d="M130.32,2c.08,0,.17,0,.25,0l0-.11C130.21,1.81,130,1.9,130.32,2Z"/>
          <path class="cls-1" d="M126.18,1.26c0,.2.38.13.75.1h-.06C127,1.07,126.58,1.17,126.18,1.26Z"/>
          <path class="cls-1" d="M127,1.35a2,2,0,0,1,.35,0C127.41,1.23,127.23,1.32,127,1.35Z"/>
          <path class="cls-1" d="M122.33.73c.17.06.11-.26.21-.17C122.74.3,121.36.87,122.33.73Z"/>
          <polygon class="cls-1" points="126.48 1.93 126.35 1.68 126.14 1.88 126.48 1.93"/>
          <path class="cls-1" d="M123.53,1.74l.6.07s.07-.06.16-.08C123.92,1.72,123.52,1.67,123.53,1.74Z"/>
          <path class="cls-1" d="M124.29,1.73a1.65,1.65,0,0,0,.48,0A3,3,0,0,0,124.29,1.73Z"/>
          <polygon class="cls-1" points="125.67 2 125.49 1.95 125.07 1.93 125.67 2"/>
          <path class="cls-1" d="M117.1,1.7l-.65.07c-.06.08.11.14.36.1S117.2,1.78,117.1,1.7Z"/>
          <path class="cls-1" d="M119.08,2.38c-.18,0-.19-.11-.29-.19l0,.31Z"/>
          <path class="cls-1" d="M117.18,2.45c-.07.09-1,.25-.12.23C117.12,2.6,117.77,2.53,117.18,2.45Z"/>
          <polygon class="cls-1" points="107.34 2.06 107.51 2.06 107.49 1.55 107.34 2.06"/>
          <path class="cls-1" d="M98.68,3.28c.77.12.18-.31.88-.16C99.74,3,99,3,99.18,2.89,98.71,3,98.47,3,98.68,3.28Z"/>
          <path class="cls-1" d="M99.18,2.89a1.27,1.27,0,0,0,.23-.08A.91.91,0,0,0,99.18,2.89Z"/>
          <polygon class="cls-1" points="1.37 0.7 0.87 0.6 1.19 0.77 1.37 0.7"/>
          <path class="cls-1" d="M.42,1.08.3.76,0,1.05C.11,1,.33,1,.42,1.08Z"/>
          <path class="cls-1" d="M68.35,3.68l0-.08c-.08-.09-.19-.09-.43-.1Z"/>
          <polygon class="cls-1" points="61.61 3.43 61.73 3.44 61.51 3.15 61.61 3.43"/>
          <path class="cls-1" d="M56,3.81c.23,0,.5-.05.74,0C56.18,3.82,55.89,3.44,56,3.81Z"/>
        </g>
        <g>
          <path class="cls-1" d="M87.76.74,88,.69A1.08,1.08,0,0,0,87.76.74Z"/>
          <path class="cls-1" d="M85.86.73l0,.1C85.9.77,85.94.73,85.86.73Z"/>
          <path class="cls-1" d="M98.15.51l.31-.22C98,.29,98.19.4,98.15.51Z"/>
          <path class="cls-1" d="M87,3c.17,0,.23-.08.23-.13C87.07,3,87,3,87,3Z"/>
          <path class="cls-1" d="M135.83.69l.09,0S135.89.69,135.83.69Z"/>
          <path class="cls-1" d="M146.81,2.88l-.45,0A1.92,1.92,0,0,0,146.81,2.88Z"/>
          <path class="cls-1" d="M115.64,1.27l.06,0C115.94,1.2,115.84,1.22,115.64,1.27Z"/>
          <path class="cls-1" d="M147.7,2.89c.26-.33,1.49,0,1.63-.34l-.44.06c.59-.37-.81-.83-.73-1.31-.65.43-1.72-.63-2.79,0-.24-.1.2-.15.08-.27a1.48,1.48,0,0,1-1.21.16l.07,0A36.22,36.22,0,0,1,140,.83l.14.24A2,2,0,0,1,139.4.9c-.47.36,1.16,0,.73.42-.55-.48-2.91,0-3.28-.55-.63,0,.19.27-.44.27l-.17-.15-.16.19c-.42,0-.63-.22-.64-.34a2.78,2.78,0,0,0,.39-.05,8.56,8.56,0,0,0-1.7,0l.61.1c-1.73.13-3.85-.06-5.52.24l.13.11c-1.28.21-1-.12-2.42,0l0,0a2.59,2.59,0,0,1-1,.15c.35-.13-.67-.25-.2-.4-1.39.23-.69.18-1.6.59l-.21-.18a1.63,1.63,0,0,1-1,.3c.57-.16-.45-.28.2-.49-1.47-.41-2.18.41-2.86-.18-.67.51,1.27.28.89.39.32.17-.55.38-1,.33s-.8-.65-2-.64c.12,0,.12,0,.24,0-.44-.13-.86.18-1.4,0-.31.31-.71,0-.8.37l1.09-.09a4.29,4.29,0,0,1-2.2.35,2,2,0,0,1,.58-.25c-.29-.11-.57.08-.87,0,.08-.4,1.31-.09,2-.39-.32-.17-1.24.29-.91-.14-.48.54-1.17-.07-2,.35l.06-.24a1.9,1.9,0,0,1-.62.14l.42-.3c-.65.26-1.25-.23-1.87-.09,1.3,0,.29.28.84.46-1.6.32-.92-.62-2.72-.51.25,0,.92.14.54.25a3.62,3.62,0,0,1-1-.26c-1.18.05.19.24-.32.39-.4-.29-.58.12-1.1.21V.86c-1.35-.16-.36.5-1.58.31L107,.84l-.64.09.13-.28a3,3,0,0,1-1.58.07c.16.17-.09.44-.69.45-.41-.14.23-.23-.62-.19a.57.57,0,0,1,.77-.12c0-.08.19-.15.23-.23a4,4,0,0,0-1.41,0,1,1,0,0,1,.33.06L102.3,1c-.2-.09,0-.16.11-.23-.25,0-.42.14-.79.16.09-.2.07-.4.59-.49L101,.63c-.08-.08-.61-.23-.46-.3C99.93.21,99,.71,98.12.56a.76.76,0,0,1-.31.1,6.53,6.53,0,0,0-2.5,0L94.77.29c-.76.08.74.44-.52.58-.89.11-.33-.3-.64-.4a2.83,2.83,0,0,1-2,.25,4.72,4.72,0,0,1,.74,0L91.7.48C92.45.16,93,.27,92.41,0,92.32.68,90,.07,89.9.75L89.49.61c.12,0,.14,0,.26,0-.8-.33-.6.49-1.62.39-.36,0-.61-.15-.37-.23L87,.91c-.24,0-.18-.13,0-.12L85.81.85v0a6.36,6.36,0,0,1-.75.34c-.31-.1.15-.08.07-.16l-.67.16c-.28-.17.28-.34.75-.32-.63-.67-.56.17-1.92-.22l.64-.09C83.52.16,83,.3,82.3.06c.17.12,1.44.6.71.77a1.51,1.51,0,0,0-.87.06c0-.24-.39-.18-.87-.17l0-.32c-.52.1-.48.26-.79.4a.84.84,0,0,1-.83-.49c-.93,0,.64.4-.46.46A5.74,5.74,0,0,0,77,1c-.54-.11.09-.19-.1-.29L76.4.94c-.12,0-.08-.08-.06-.12-.41.09,0,.32-.67.4-.14.3-1-.27-1.7-.21V2.6h.9l-.22-.06c.31-.38.64-.08,1.26-.13l0,0c1.41.28.61-.13,2,.19l-.08-.24c.13-.52,1.24.3,2.05.1l-.3-.13c.45-.18,1.24.7,1.68.76.1.05-.15.07-.28.11,1.16.3.15-.32,1-.39.16.17-.2.43.38.46.29.14,1.69-.55,2.49-.22-.18-.13-.35-.26.05-.36.62,0,1.67.49,2.23.08.08,0,.11.07.11.1a7,7,0,0,0,1.82-.4c.43.83,2.93-.4,2.92.36l1.45,0,0,.08A2.35,2.35,0,0,0,95,2.59c.22.06.06.13,0,.17a4.33,4.33,0,0,0,2.63-.26l.12.25c.3-.15,2,.39,3.28.1a.24.24,0,0,1-.14.11c1.49-.29,3.58.68,4.13-.22l1-.22c-1.27-.07.19-.39-.33-.54.5-.05,1.3.27.68.32l-.1,0c-.22.47,1.59.17,1.55.49,2.52,0,5,.24,7.32.26l-.27-.37.82,0c.21.09.29.29-.3.27.31.21,1-.17,1-.25,1.15.15-.45.43-.1.43l.48,0L116.65,3a2,2,0,0,1,1.13-.29c.44.08.23.23.4.24,0,0,.06,0,.27,0l1,0-.42-.29c.46-.15,1,0,.5-.31.7.5,3.85.18,4.28.33a6,6,0,0,1,2.07-.18c-.2-.06-.32-.38.36-.34-.25.67,1.24.29,1.79.77-.49-.32,1.92-.08,1.15-.53.57,0,0,.25.47.41,1.34-.26,3,.16,4.62.08,0-.09-.25-.23.11-.36l.87.44c.33,0,.31-.51.91-.2-.09-.07-.21-.19,0-.21,3.25.42,6.65-.35,10,.45-.45-.17-.15-.19.19-.19-.22,0,0-.22,0-.34ZM83,.84c.18-.06.54-.21.67-.07C83.49,1.05,83.33.91,83,.84Z"/>
          <path class="cls-1" d="M118.28,2.9l-.17-.07C118.48,2.76,118.38,2.83,118.28,2.9Z"/>
          <path class="cls-1" d="M98.1.55h0s0,0,0-.05Z"/>
          <polygon class="cls-1" points="148.63 3.15 149.13 3.26 148.81 3.09 148.63 3.15"/>
          <path class="cls-1" d="M149.58,2.78l.12.32.3-.29C149.89,2.82,149.67,2.85,149.58,2.78Z"/>
          <path class="cls-1" d="M81.65.18l0,.08c.08.08.19.09.43.1Z"/>
          <polygon class="cls-1" points="88.39 0.42 88.27 0.42 88.49 0.71 88.39 0.42"/>
          <path class="cls-1" d="M94.05.05c-.23,0-.5.05-.74,0C93.82,0,94.11.42,94.05.05Z"/>
        </g>
      </g>
    </g>
  </g>
</svg>
