<svg xmlns="http://www.w3.org/2000/svg" width="50" height="50.56" viewBox="0 0 50 50.56">
  <defs>
    <style>
      .cls-1 {
        fill: #da202d;
      }
    </style>
  </defs>
  <title>Ресурс 5@</title>
  <g id="Слой_2" data-name="Слой 2">
    <g id="Слой_1-2" data-name="Слой 1">
      <g>
        <g>
          <path class="cls-1" d="M45.13,47.06c0,.12.59-.18.71-.21C45.63,46.75,45,47.14,45.13,47.06Z"/>
          <polygon class="cls-1" points="43.06 46.25 43.32 46.15 42.62 46.25 43.06 46.25"/>
          <path class="cls-1" d="M42.42,45c-1,.67.4.35.16.77l-.22.16.88-.32C43,45.38,42.24,45.33,42.42,45Z"/>
          <path class="cls-1" d="M44.21,43.1c-.36.27-.41,0,0,.23l.08-.08A.32.32,0,0,1,44.21,43.1Z"/>
          <path class="cls-1" d="M44.26,43.25c.11.11.28-.28,0,0Z"/>
          <path class="cls-1" d="M43.69,42.77l.45,0c.21-.17.17-.35.37-.4C44.22,42.28,44,42.45,43.69,42.77Z"/>
          <path class="cls-1" d="M42.87,43h.2C43.16,43,43.18,42.92,42.87,43Z"/>
          <path class="cls-1" d="M43.49,43h-.42c-.14.11-.47.31.16,0C42.93,43.21,43.23,43.08,43.49,43Z"/>
          <path class="cls-1" d="M43.4,43.24c-.16.22-.23.42-.67.45C43.05,43.93,43.73,43.48,43.4,43.24Z"/>
          <path class="cls-1" d="M41.34,45.5l-.23.29.4-.08C41.31,45.75,41.65,45.32,41.34,45.5Z"/>
          <path class="cls-1" d="M43.59,41.43c-.22.12-.53.39-.79.57l.32,0A1.28,1.28,0,0,1,43.59,41.43Z"/>
          <path class="cls-1" d="M42.8,42l-.47,0C42.39,42.22,42.58,42.14,42.8,42Z"/>
          <polygon class="cls-1" points="41.76 43.66 42.69 43.51 41.71 43.6 41.76 43.66"/>
          <polygon class="cls-1" points="43.21 40.74 43.75 40.55 42.91 40.82 43.21 40.74"/>
          <path class="cls-1" d="M42.86,40.36c.44-.17.62-.51.91-.59a2.06,2.06,0,0,0-.91.14C43.09,39.9,43.11,40,42.86,40.36Z"/>
          <path class="cls-1" d="M42.32,40a5,5,0,0,0,.54-.13A2.19,2.19,0,0,0,42.32,40Z"/>
          <path class="cls-1" d="M42.26,41.67a1.86,1.86,0,0,0,.51-.5l-.55.43Z"/>
          <path class="cls-1" d="M42.21,41.61h0l0-.17Z"/>
          <path class="cls-1" d="M42.26,41.69v0C42.2,41.71,42.19,41.73,42.26,41.69Z"/>
          <path class="cls-1" d="M42,42.87a1.68,1.68,0,0,0-1.25.6A7.3,7.3,0,0,1,42,42.87Z"/>
          <path class="cls-1" d="M41.58,42.22l0,.27a1.86,1.86,0,0,1,.55-.31Z"/>
          <polygon class="cls-1" points="41.34 42.25 41.58 42.22 41.59 42.13 41.34 42.25"/>
          <path class="cls-1" d="M42,40.67c-.3.08-.37,0-.47-.06a.47.47,0,0,0,0,.42C41.68,40.93,42,40.77,42,40.67Z"/>
          <path class="cls-1" d="M42,41.16h0S41.92,41.22,42,41.16Z"/>
          <path class="cls-1" d="M40.93,39.68l-.1.08.11-.06Z"/>
          <path class="cls-1" d="M41.39,41.11c-.07.15.1.11.31,0a.34.34,0,0,1-.21-.12C41.4,41.07,41.34,41.1,41.39,41.11Z"/>
          <path class="cls-1" d="M41.89,39.94a3.19,3.19,0,0,0-.25.33C41.81,40.12,42.05,39.86,41.89,39.94Z"/>
          <path class="cls-1" d="M42.12,41h0C42.27,40.93,42.21,41,42.12,41Z"/>
          <path class="cls-1" d="M42.12,41a2.19,2.19,0,0,0-.42.11.84.84,0,0,0,.28,0Z"/>
          <path class="cls-1" d="M36.94,41.61c.56-.3,1.19-.39.7.14a13.21,13.21,0,0,0,3.19-2,1.62,1.62,0,0,1-.89.28c-.27.24-.48.8-1.06,1-.43-.08.08-.31.3-.59-.63.49-1.17.27-2.16.9h.48C37.34,41.4,37.05,41.47,36.94,41.61Z"/>
          <path class="cls-1" d="M41,40.12l.11,0a2.83,2.83,0,0,1,.6-.68,2.15,2.15,0,0,0-.74.23l.13.4Z"/>
          <path class="cls-1" d="M41.28,40.48a5.25,5.25,0,0,0-1.58.77c.18.19.59-.15.93-.18-.36-.26.39-.1.58-.55a.5.5,0,0,1,.27.09,1.48,1.48,0,0,1,.16-.34l0,0h0c-.07.06-.11.1-.08.05h0l-.23.12c.06-.17.14-.1.23-.12l.1-.05h0l-.53-.15C41,40.27,41.11,40.35,41.28,40.48Z"/>
          <path class="cls-1" d="M39.36,44.05a.91.91,0,0,1,.13-.1C39.4,44,39.35,44,39.36,44.05Z"/>
          <path class="cls-1" d="M39.63,43.68c.1,0,.35-.14.34,0s-.29.17-.48.29a1,1,0,0,0,.73-.41l-.1,0a3.36,3.36,0,0,1,.85-.92A15,15,0,0,0,39.63,43.68Z"/>
          <path class="cls-1" d="M40.29,42.15,39.82,42l-.42.46.3-.2C39.68,42.54,40,42.28,40.29,42.15Z"/>
          <polygon class="cls-1" points="41.21 39.48 41.87 39.14 40.88 39.51 41.21 39.48"/>
          <polygon class="cls-1" points="40.93 39.16 41.49 38.86 41.1 38.96 40.93 39.16"/>
          <path class="cls-1" d="M20.2,22.76l-.2,0A.59.59,0,0,0,20.2,22.76Z"/>
          <path class="cls-1" d="M20.62,23.33l.25-.18C20.72,23.23,20.61,23.3,20.62,23.33Z"/>
          <path class="cls-1" d="M35,29.57c.41-.45,1.08-1.11.5-.7l-.56.43C35.08,29.32,35.06,29.43,35,29.57Z"/>
          <path class="cls-1" d="M27.16,25.75l-.15.16.6-.31Z"/>
          <path class="cls-1" d="M24.77,27.39,25,27A1.79,1.79,0,0,0,24.77,27.39Z"/>
          <path class="cls-1" d="M17.14,20.31l-.61.38C16.65,20.83,16.86,20.53,17.14,20.31Z"/>
          <path class="cls-1" d="M38.36,35.24a.82.82,0,0,0,.2-.5C38.3,35.09,37.85,35.51,38.36,35.24Z"/>
          <path class="cls-1" d="M26.13,18.27a.91.91,0,0,0-.39.2A.67.67,0,0,0,26.13,18.27Z"/>
          <path class="cls-1" d="M38.36,34.42l-.11.14c.15,0,.28.06.31.18C38.75,34.49,38.84,34.28,38.36,34.42Z"/>
          <path class="cls-1" d="M7.9,10l0-.08C7.86,10,7.87,10,7.9,10Z"/>
          <path class="cls-1" d="M8.39,1.68a.63.63,0,0,1,.27.08C8.64,1.69,8.56,1.65,8.39,1.68Z"/>
          <path class="cls-1" d="M40.31,37.44c.09.07.07,0,0,0Z"/>
          <path class="cls-1" d="M38.14,39.22a1.28,1.28,0,0,0-.32.14A1.7,1.7,0,0,1,38.14,39.22Z"/>
          <path class="cls-1" d="M34.14,35.88h0C34,36,34.06,36,34.14,35.88Z"/>
          <path class="cls-1" d="M40.11,37.73a.85.85,0,0,0,.11-.21A1,1,0,0,0,40.11,37.73Z"/>
          <path class="cls-1" d="M40.38,37.55v.11C40.47,37.61,40.53,37.56,40.38,37.55Z"/>
          <path class="cls-1" d="M40.21,37.34a.19.19,0,0,1,0,.18l.09-.08Z"/>
          <path class="cls-1" d="M14.46,13.78l0-.06C14.21,13.85,14.27,13.85,14.46,13.78Z"/>
          <path class="cls-1" d="M27.57,31.62h0l0,0Z"/>
          <path class="cls-1" d="M27,31.65c.8-.38.76-.26.67-.06l1.59-1.25Z"/>
          <path class="cls-1" d="M19,21.59l-.34.58c-1,.46-.82.08-1.35.82,1.69-1.4.74.53,2.43-.86l-.25.42c0-.05-.12,0-.13,0-.62.9,1.36-.85,1.36-.35a.85.85,0,0,1-.49.58l.61-.12c0,.1-.29.32-.31.23l.42.24-.05,0a11.13,11.13,0,0,1,1-.48c-.18.29-.22.11-.42.3l.58-.14c-.39.44-.94.62-1,.44-1.56,1.55.56-.19-.13,1h-.36c-.88.89-.41.75-.86,1.44.28-.3,1.21-1.62,1.8-1.75-.08.16-.08.29.36.13-.62.48-.38.47-.23.59l-.83.62a5.25,5.25,0,0,0,1.2-.56c0,.24-.55.76-1.06,1.21.09.38.87-1,1.28-.76-.14.47.32.38,1,.28-.16.38-.53.36-.72.59l.77-.35c0,.05-.2.19-.31.26.35-.07.83-.61,1.2-.59,1-.63-1,1.4.19.86a7.72,7.72,0,0,1-.84.61,6.89,6.89,0,0,0,1.82-.5L25,27a4.58,4.58,0,0,1,2.14-1.22c.25-.28.48-.53.58-.66l.67,0a3.26,3.26,0,0,1-.8.53l.24-.09a3.5,3.5,0,0,1-1.27.89l.43-.49a10.79,10.79,0,0,0-1.64,1,.76.76,0,0,1,.3-.07,2.88,2.88,0,0,0-.36.23c-.08.08.13,0,.38-.13l-.88.75.38-.25-.29.82c1.14-.4,2.7-1.16,3.42-1a13.9,13.9,0,0,0-1.95,1.36c.77-.74-.62-.08-.61-.44,0,.18-.41.44-.56.5l1.08-.14c-.67.47-.44.44-.63.75,1.25-1,1.1-.32,1.62-.43-.43.32-.91.6-.95.32-.83.94,1.75-.81,1.07,0,0,0,0-.12-.23,0,.47-.16.37.35-.06.56l-.05-.05c.08.45.72,1,1.88.31-.14.1-1.39.9-1.63,1l4.22-2c-1,.62-3.17,2.43-3.92,2.52-.08.18-.17.39.29.33a6.94,6.94,0,0,1,1.45-1.1,11.87,11.87,0,0,0-1.22,1.44c.15-.23,1.73-1.18,1.78-1-.24.14-1.5,1.05-1.69,1.11l1.72-.7a7.26,7.26,0,0,0-1.65,1.22c.27-.24.16.3.37.28l.25-.37c0,.52,2.37-1.06,2.54-.63a7.72,7.72,0,0,0-2.06,1.48c.83-.43,4-2.09,4.8-2.14l-.4.36.68-.08c-1.28.6-4,1.78-5.14,2.18-.26.37-.5.38-.32.56-.36.35-.7.31-.77.26l.05.66c.9-.62,1.16-.23,1.9-.74l-1.29.09c.89-.62,2.77-1.39,2.85-.93a18,18,0,0,1-2,1.19c.34-.16.81-.06.61.12l-.58.17c-.22.41,1.41-.47.69.32,0,.12-1,1-.48.66A46.69,46.69,0,0,1,35,33a12,12,0,0,1-1.18,1.49c-.73.66-2.08,1-2.71,1.6a4.07,4.07,0,0,1,.73-.31c-.16.22-.8.46-.57.57.95-.55.16.43.84-.41.38,0-.07.32.11.5A7.05,7.05,0,0,1,34.8,35.4a5.74,5.74,0,0,0-.66.48c.15.43-.15.9.06,1.26a2.64,2.64,0,0,1-.83.68c.2,0,.54-.2.63-.11-.68.7-.27-.16-1.15.59a2.59,2.59,0,0,1,1.36-.23c.82-.55-.05-.45-.49-.4A6.87,6.87,0,0,1,37,36.55c.47.13-.67.58-.48.54.13.68,2.34-.73,1.77.25a11.94,11.94,0,0,1-2,1.23c-.43-.08.26-.66.13-.8l-.24.41c-.29.07-.58,0-.41-.2-.58.55.42,1,.05,1.81a1.73,1.73,0,0,0,.9-.32l-.18-.07c.53-.48,1-.22,1.17-.56.53-.06,1.32-.23,1.13.23l-.84.54c.25-.15.42-.46.12-.39.44-.1-.94,1.06.25.55l.5-.52c.54-.06,1.59-.32,1.43,0,.8-.57-.12,0,.79-.7-1.15.84-.29-.64-1.46.33,1.06-.82.32-.57,1.18-1.36-.28.17-.5.39-.47.11l-.28.1,0,0,0,0s-.06,0,0,0a2.08,2.08,0,0,1-.37.35c-.71.27-.87-.06-1.27,0,.07-.19.36-.14.62-.38l-.59.14c.61-.38.86-.92,1.39-.85l-.12-.27c.26-.35.29-.64,0-.61.07-.2-.87.11-.32-.08l-.62-.16.16-.09c-.15-.44-1.5-.17-.65-1.29-.23,0-.5,0-.46-.37l.51-.37c-.29,0,.22-.82-.38-.55,1.32-1.07-.18-1-.11-1.44l-.7.43c-.09-.22-.41-.29-.84-.35l-.6.4c-.63.12.09-.81-.19-1.1.25-.13.24,0,.14.14,1.11-1.29-1.53-.17-.78-1.18-.28.06-.24-.06-.14-.22a0,0,0,0,0,0,0,.08.08,0,0,0,0,0l.24-.34a1.9,1.9,0,0,0-.25.32.62.62,0,0,0-.42-.11l.61-.48h0c.17-.26-.36.13-.81.51a2,2,0,0,0-.47.13c1-.79-.53,0,.5-.89-.59.3-.75-.23-1.92.5.15-.11.2-.19.24-.14.06-.2.11-.4-.28-.28l.78-.6L31.66,29A2.81,2.81,0,0,1,33,28c-1.21.32-.56,0-1.72.33l.53-.35c-.09-.09-.91.23-.52-.14.82-.93-.69-1.26-.22-2.53-1.44,1.22.48-.77-.72.06.34-.3.48-.53.86-.66-.58-.05.23-.88-.92-.37.34-.3.58-.32.77-.5-.1,0-.39.13-.2-.06a1,1,0,0,1,.53-.24C31.13,23.25,30,24,29,24.78c.37-.52.25-.55-.52-.16.3-.31.59-.66.85-.56,0-.14,0-1-.83-.43.18-.19-.06-.19-.17-.15-.14-.28-.08-.36-.34-.54l-.08.17c-1.06.66-.37,0-.64-.13l.11-.07c.38-1-.48.07,0-1l-.6.49c-1.35,1,.49-1-.21-.84l-.28.36c-.55.21,1.5-1.76,1.55-2,.09-.12.22-.09.34-.11.49-1-.84.57-1.23.44.39-.39,1.14-.79,1.08-1,.27-.37-1.82.57-1.2-.33a2,2,0,0,1-.91.71c-.27-.1.82-1.52-.35-.86a1.7,1.7,0,0,1,.22-.24,2.78,2.78,0,0,0-1.45.27c1.94-1.85-1.73,0,.15-1.63L24,16.75l.2-.15c-.12-.38-.65-.09-1.18.2.07-.18.29-.28.39-.36,0-.73-.09-.7-1.31-.23l.57-.56c-.43.22.43-1.41-.62-1.18a1.28,1.28,0,0,1,.31-.2c-1.09.2.69-2.54-1.61-.73l-.79.2c.17.52-1,.8-1.2,1.28-.25,0,.31-1,.58-.89l-.08.12c1.18-1,0-.81.75-1.51-.73-.66-.77-1.93-1.35-2.64l-.78.88-.17-.27c.14-.25.59-.72.71-.52.4-.55-.67.11-.86.28,0-.65,1.12-.82,1-.94l-.19-.07-.07.12c-.46.23-.84.57-1,.33.05-.29.46-.56.45-.64s.07-.11-.05-.1l-.2-.37L17,9.56c-.45.19-.22-.31-.86.56,1-1.32-.62-1.5-.39-2-.66.29-.82.1-1-.17-.08.19-.79,1-.89.68,1.59-1.46.31-1,1.23-2.28-.57.88-.74-.36-1.53.92,0-.29.55-.6.77-1.09-1,.24-.54-1.24-1.27-1.49a3.41,3.41,0,0,1-.77.84l.63-1.33c-.2,0-1.14,1.19-.72.26-.12.21-.3.52-.43.54a1.72,1.72,0,0,0-.2-.64c-.23-.45-1-.67-1.45-1s-.89-.79-1-2.16c-.07.6-.22.57-.41.49.05.17-.35.61-.51,1a3.4,3.4,0,0,0-.34-1.35c-.55.91-.87-.2-1.2.87a.76.76,0,0,1,.25-.19c-.58,1.14-.4,2.61-1,4.08.33-.62.19-.12.08.3s-.21.79.44,0c-.11.3-.31.4-.46.72.4-.53.57-.59.56-.23l-.1.12c.54.17.37.86.61,1.6l.43-.63c.05.16-.07.37-.14.56.85-.8-.27-.3.63-1.21-.54,1,0,.83.18,1.34.06.2,0,.41-.32.84.16.14.5-.73.67-.59l-.26.41L8.62,9c.05.17-.27.68-.53,1,0-.06-.15,0-.19,0-.23.55.51.18.44.36l0-.36c.75,0,.87,1,2,.7l.21-.29c.8-.16,0,.54.58.68l-.07,0c.32-.19.55-.22.62-.09-.39.21-.41.75-.86,1,.87-.14.58-.22,1.77-.92l-.37.48c.47-.3.68-.49,1-.41-.52.21-.54.76-1.2,1.06-.56,1.3,1.53-.33.32,1.18,1.37-1,.33-1,.69-1.12.3-.46,1-.71,1-.46s-1.32,1.68-1,2c0,0-.12.05-.14,0-.2.41.64-.15.28.47.81-.6.15.24,1.1-.62l-.5-.1c.4,0,1.64-.92,1.38-.14a3.15,3.15,0,0,1-.72.38c-.2.34.33,0,.13.34-.95.85-.55-.18-1.43.3-.31.46,1-.28-.09.58,1.4-1.08.14.47,1.33-.23l-.57.51c.12,0,.45-.22.49-.14l-.83.56c.79-.4-.21.85.28.71-.35-.34.6-.71.87-1.25,1.16-.25-1.22,1.63-.49,1.87-.14,0,.1-.56.46-.7a2,2,0,0,1-.37.86c.42.22.53-.59,1-.77-.57.75.43-.1.79-.15l-.57.53c0,.71,1.28-1,1.15-.25l-.92.58h.36l-.68.57c.66-.26.59-.08.58.27.36-.41,1.06-.93,1.24-.77-.24.42-.61.43-.31.59-.41.28-.91.63-.48,0l-.6.43c-.28.48.19.39.27.47a.27.27,0,0,1,.05-.21l1.11-.39a1.33,1.33,0,0,1-.59.48c.13,0,.44-.18.58-.12a4.16,4.16,0,0,1-1.32.9l.81-.15c-.18.21-.41.68-.62.79-.12.43,1.31-.37,1.16.19a.68.68,0,0,1,.32-.13c.1.33-.31,1,.58.74l-.73.89c.38.05.9-1.14,1.53-1.07s-.65.73-.81,1c.53-.25,1.61-.78,1.1,0C19,21.78,19.09,21.61,19,21.59Zm2.57,2.34c-.17.05-.65.26-.32-.06C22,23.37,21.67,23.69,21.54,23.93Zm4.73,3.13c-.24.11-.18,0,0-.27C26.36,26.8,26.38,26.88,26.27,27.06Zm13,9.77h0C39.37,36.55,39.29,36.66,39.22,36.83Zm-.12.45a.67.67,0,0,0,.29-.15c-.19.08-.24,0-.23-.08C39,37.18,38.9,37.28,39.1,37.28ZM17.56,9.44l-.11.18C17.19,9.67,17.37,9.56,17.56,9.44Z"/>
          <path class="cls-1" d="M25.05,27.21a2.21,2.21,0,0,1,.32-.28A.78.78,0,0,0,25.05,27.21Z"/>
          <polygon class="cls-1" points="17.25 20.24 17.25 20.22 17.14 20.31 17.25 20.24"/>
          <path class="cls-1" d="M30.87,36.44a1.31,1.31,0,0,1,.27-.32C31,36.22,30.86,36.33,30.87,36.44Z"/>
          <path class="cls-1" d="M41.12,38.16l-.28-.09c.08.08-.05.19-.13.3C40.86,38.27,41.07,38.11,41.12,38.16Z"/>
          <path class="cls-1" d="M37.81,42.06c.09,0,0,0,.14,0l.3-.19C38.17,41.8,37.87,41.87,37.81,42.06Z"/>
          <path class="cls-1" d="M39,39.59c-.57.34-.31.34-.13.4l0,0C39.63,39.56,39.3,39.59,39,39.59Z"/>
          <path class="cls-1" d="M38.86,40a.11.11,0,0,1,.08.1C39.26,40,39,40,38.86,40Z"/>
          <path class="cls-1" d="M39.68,37.43c-.11.14.75-.38.54-.21C41,36.87,39.11,37.31,39.68,37.43Z"/>
          <polygon class="cls-1" points="37.13 40.74 37.81 40.31 37.2 40.55 37.13 40.74"/>
          <path class="cls-1" d="M37.09,39.46l-.08.31a.45.45,0,0,1,.27-.08C37.23,39.55,37.29,39.34,37.09,39.46Z"/>
          <path class="cls-1" d="M37.28,39.69c0,.07.07.13.2.1A.25.25,0,0,0,37.28,39.69Z"/>
          <polygon class="cls-1" points="36.76 40.59 36.88 40.45 36.85 40.28 36.76 40.59"/>
          <path class="cls-1" d="M36,37.23l-.33-.1c-.25.12-.36.27-.22.29A1,1,0,0,0,36,37.23Z"/>
          <path class="cls-1" d="M34.45,39a3,3,0,0,1,.47-.41l-.86.51Z"/>
          <path class="cls-1" d="M33.88,38.51c-.25.12-.87.1-.66.33C33.47,38.72,33.8,38.82,33.88,38.51Z"/>
          <polygon class="cls-1" points="32.98 34.64 33.03 34.69 34.41 33.8 32.98 34.64"/>
          <path class="cls-1" d="M27.89,34.05c-.16.46.88-.5.62,0,.36-.16.21-.4.53-.53C28.6,33.59,28.74,33.38,27.89,34.05Z"/>
          <path class="cls-1" d="M29,33.51a2.67,2.67,0,0,0,.26-.07A1.2,1.2,0,0,0,29,33.51Z"/>
          <polygon class="cls-1" points="7.51 0.39 7.31 0 7.35 0.57 7.51 0.39"/>
          <path class="cls-1" d="M6.71,1.55,7,.53l-.27,1C6.72,1.46,6.77,1.33,6.71,1.55Z"/>
          <path class="cls-1" d="M20.19,25.63l.21-.14c.2-.19.19-.24.17-.33Z"/>
          <polygon class="cls-1" points="19.27 23.23 19.28 23.28 19.96 22.61 19.27 23.23"/>
          <path class="cls-1" d="M17,22.43c0,.09.25,0,.27.12C17,22.52,17.89,21.64,17,22.43Z"/>
        </g>
        <g>
          <path class="cls-1" d="M1.87,50.34c-.07,0,.59.18.71.22A2.47,2.47,0,0,0,1.87,50.34Z"/>
          <polygon class="cls-1" points="0.79 48.81 1.03 48.94 0.49 48.49 0.79 48.81"/>
          <path class="cls-1" d="M1.36,47.69c-1.07-.46-.05.51-.52.51l-.26-.09.79.5C1.36,48.33,1,47.71,1.36,47.69Z"/>
          <path class="cls-1" d="M3.82,48.45c-.4-.21-.25-.32-.19,0l.1,0A.18.18,0,0,1,3.82,48.45Z"/>
          <path class="cls-1" d="M3.73,48.53c0,.11.36.14,0,0Z"/>
          <path class="cls-1" d="M3.83,47.93l.24.35c.24.12.36,0,.49.2C4.47,48.23,4.24,48.1,3.83,47.93Z"/>
          <path class="cls-1" d="M3.23,47.31l.09.17C3.42,47.54,3.46,47.54,3.23,47.31Z"/>
          <path class="cls-1" d="M3.51,47.84l-.19-.36c-.17-.08-.48-.29.06.15C3.1,47.42,3.35,47.64,3.51,47.84Z"/>
          <path class="cls-1" d="M3.31,47.83a.88.88,0,0,1-.7-.41C2.56,47.78,3.27,48.17,3.31,47.83Z"/>
          <path class="cls-1" d="M.37,47,0,47l.27.3C.13,47.14.69,47.21.37,47Z"/>
          <path class="cls-1" d="M4.92,47.45c-.18-.16-.55-.36-.8-.54l.14.28A1.4,1.4,0,0,1,4.92,47.45Z"/>
          <path class="cls-1" d="M4.12,46.91l-.21-.41C3.76,46.61,3.9,46.75,4.12,46.91Z"/>
          <path class="cls-1" d="M2.21,46.55c.17.26.35.52.54.77-.18-.27-.35-.55-.51-.83Z"/>
          <polygon class="cls-1" points="5.41 46.91 5.77 47.35 5.24 46.66 5.41 46.91"/>
          <path class="cls-1" d="M5.65,46.47c.3.37.67.44.83.69,0-.15-.2-.51-.4-.83C6.16,46.55,6,46.6,5.65,46.47Z"/>
          <path class="cls-1" d="M5.81,45.85a3.25,3.25,0,0,0,.27.48A2.32,2.32,0,0,0,5.81,45.85Z"/>
          <path class="cls-1" d="M4.22,46.31a1.92,1.92,0,0,0,.64.32l-.58-.38Z"/>
          <path class="cls-1" d="M4.26,46.24h0l.14-.11Z"/>
          <path class="cls-1" d="M4.2,46.32h0C4.16,46.27,4.14,46.26,4.2,46.32Z"/>
          <path class="cls-1" d="M3,46.48c-.24-.32-.4-.78-1-.94C2.32,45.9,2.67,46,3,46.48Z"/>
          <path class="cls-1" d="M3.47,45.85l-.26.08a1.91,1.91,0,0,1,.49.41Z"/>
          <polygon class="cls-1" points="3.37 45.63 3.47 45.85 3.57 45.83 3.37 45.63"/>
          <path class="cls-1" d="M5.08,45.69c-.16-.27-.11-.36-.07-.48a.51.51,0,0,0-.41.15C4.75,45.51,5,45.81,5.08,45.69Z"/>
          <path class="cls-1" d="M4.63,45.92l0,0C4.56,45.85,4.54,45.84,4.63,45.92Z"/>
          <path class="cls-1" d="M5.83,44.34l-.1-.07.08.08Z"/>
          <path class="cls-1" d="M4.49,45.29c-.16,0-.07.14,0,.32a.39.39,0,0,1,.06-.25C4.53,45.29,4.49,45.24,4.49,45.29Z"/>
          <path class="cls-1" d="M5.79,45.39a2.54,2.54,0,0,0-.39-.13C5.59,45.37,5.91,45.53,5.79,45.39Z"/>
          <path class="cls-1" d="M4.78,46v0C4.92,46.08,4.87,46,4.78,46Z"/>
          <path class="cls-1" d="M4.78,46a3.74,3.74,0,0,0-.24-.37.63.63,0,0,0,.07.27Z"/>
          <path class="cls-1" d="M2.92,41c.44.46.68,1.07,0,.77a11.42,11.42,0,0,0,2.8,2.52,1.61,1.61,0,0,1-.5-.81c-.3-.19-.94-.19-1.22-.73,0-.46.34,0,.69.09C4,42.36,4.16,41.72,3.28,41l.09.49C3.23,41.32,3.1,41,2.92,41Z"/>
          <path class="cls-1" d="M5.38,44.53v.13a2.49,2.49,0,0,1,.84.36,1.88,1.88,0,0,0-.41-.67l-.38.27Z"/>
          <path class="cls-1" d="M5.1,45c-.47-.52-.53-.89-1.18-1.3-.15.24.3.54.41.87.17-.45.2.35.71.38a.54.54,0,0,1,0,.3,1.39,1.39,0,0,1,.39,0l0,0h0c-.07,0-.12-.08-.07-.06h0L5.1,45c.19,0,.14.11.18.2l.07.07h0l0-.58C5.24,44.66,5.18,44.76,5.1,45Z"/>
          <path class="cls-1" d="M1,44.43l.14.09C1.06,44.44,1,44.4,1,44.43Z"/>
          <path class="cls-1" d="M1.42,44.54c.06.09.26.28.13.32s-.26-.2-.44-.34a.85.85,0,0,0,.64.53L1.7,45a3,3,0,0,1,1.17.45A11.91,11.91,0,0,0,1.42,44.54Z"/>
          <path class="cls-1" d="M3.15,44.58v-.51l-.58-.25.28.23C2.59,44.12,3,44.38,3.15,44.58Z"/>
          <polygon class="cls-1" points="6.11 44.55 6.61 45.09 6 44.22 6.11 44.55"/>
          <polygon class="cls-1" points="6.38 44.14 6.82 44.6 6.64 44.24 6.38 44.14"/>
          <path class="cls-1" d="M23.31,19l0-.21A.49.49,0,0,0,23.31,19Z"/>
          <path class="cls-1" d="M22.61,19.53l.18.26C22.71,19.63,22.64,19.52,22.61,19.53Z"/>
          <path class="cls-1" d="M15.51,35.64c.52.34,1.27.92.78.39l-.49-.5C15.79,35.7,15.67,35.7,15.51,35.64Z"/>
          <path class="cls-1" d="M19.51,26.84l-.17-.14.33.59Z"/>
          <path class="cls-1" d="M17.77,24.52l.46.2A1.73,1.73,0,0,0,17.77,24.52Z"/>
          <path class="cls-1" d="M26.53,15.48l-.33-.65C26,15,26.33,15.2,26.53,15.48Z"/>
          <path class="cls-1" d="M9.93,40.38c.29.1.45.11.55.06C10.08,40.27,9.56,39.92,9.93,40.38Z"/>
          <path class="cls-1" d="M27.7,25a.79.79,0,0,0-.19-.39A.65.65,0,0,0,27.7,25Z"/>
          <path class="cls-1" d="M10.78,40.16a1.22,1.22,0,0,0-.17-.07c0,.16,0,.3-.13.35C10.77,40.58,11,40.61,10.78,40.16Z"/>
          <path class="cls-1" d="M40.54,5.79l.07,0C40.56,5.76,40.55,5.76,40.54,5.79Z"/>
          <path class="cls-1" d="M48,9.05a.32.32,0,0,1-.11.1S47.94,9.18,48,9.05Z"/>
          <path class="cls-1" d="M8,43c0,.1,0,.06,0,0Z"/>
          <path class="cls-1" d="M5.71,41.34a1.54,1.54,0,0,0-.21-.27A1.42,1.42,0,0,1,5.71,41.34Z"/>
          <path class="cls-1" d="M8.65,36.21h0C8.54,36.13,8.56,36.14,8.65,36.21Z"/>
          <path class="cls-1" d="M7.67,42.85a.85.85,0,0,0,.25,0A1,1,0,0,0,7.67,42.85Z"/>
          <path class="cls-1" d="M7.92,43.07l-.11,0C7.88,43.18,7.94,43.23,7.92,43.07Z"/>
          <path class="cls-1" d="M8.09,42.83c0,.06-.1.07-.17.07A.23.23,0,0,1,8,43Z"/>
          <path class="cls-1" d="M34.27,12.57l.06,0C34.24,12.31,34.23,12.38,34.27,12.57Z"/>
          <path class="cls-1" d="M13,28.25v0h0Z"/>
          <path class="cls-1" d="M13,27.59c.43.78.29.76.07.7l1.41,1.45Z"/>
          <path class="cls-1" d="M24.79,17.57l-.61-.32c-.38-1,0-.9-.72-1.42,1.33,1.74-.72.86.62,2.6l-.43-.24c.05,0,0-.13,0-.14-.94-.6.78,1.4.22,1.45a.74.74,0,0,1-.59-.48l.06.65c-.11,0-.33-.28-.22-.31l-.32.48,0-.05a9.7,9.7,0,0,1,.42,1.07c-.3-.16-.09-.23-.29-.42l.1.61c-.46-.37-.61-.95-.39-1-1.6-1.52.15.59-1.13,0l0-.4c-.92-.85-.81-.36-1.55-.75.31.26,1.73,1.1,1.82,1.74-.17-.07-.32-.06-.18.4-.49-.61-.5-.35-.64-.18L20.35,20c0,.38.35.77.53,1.22-.26.09-.81-.5-1.28-1-.43.14,1,.81.77,1.27-.52-.08-.44.4-.38,1.14-.41-.12-.36-.52-.62-.69l.36.77c-.06,0-.2-.18-.28-.29.06.36.64.81.6,1.21.66.93-1.51-.92-1,.31-.25-.18-.36-.52-.64-.81A6.21,6.21,0,0,0,18.92,25l-.69-.31a4,4,0,0,1,1.28,2.12c.31.23.57.43.71.52v.71a2.63,2.63,0,0,1-.56-.78l.1.25a3.05,3.05,0,0,1-1-1.23l.53.39a10.77,10.77,0,0,0-1.08-1.61.55.55,0,0,1,.07.31,1.59,1.59,0,0,0-.25-.35c-.08-.07,0,.13.14.38l-.81-.82.27.37-.9-.19c.41,1.16,1.21,2.71,1,3.5a11.36,11.36,0,0,0-1.48-1.86c.81.7.1-.68.51-.73-.21,0-.49-.37-.55-.52l.13,1.13c-.51-.64-.49-.39-.83-.55,1.13,1.17.34,1.13.46,1.67-.36-.41-.66-.88-.35-1-1-.72.88,1.74,0,1.15,0-.05.13,0,0-.25.17.48-.4.46-.62,0l.05-.06c-.51.17-1.17,1-.34,2.06-.12-.14-1-1.31-1.17-1.54L15.85,32c-.7-.95-2.74-2.9-2.86-3.67-.19-.05-.43-.11-.35.37A6.13,6.13,0,0,1,13.88,30a10.19,10.19,0,0,0-1.62-1c.25.12,1.35,1.61,1.16,1.69-.15-.23-1.19-1.38-1.26-1.57L13,30.77a6.59,6.59,0,0,0-1.39-1.51c.27.24-.34.25-.32.47l.43.18c-.59.15,1.26,2.28.8,2.56-.2-.33-1.39-1.85-1.74-1.85.51.79,2.51,3.74,2.63,4.58L13,34.86l.13.69c-.76-1.2-2.22-3.83-2.71-4.92-.42-.19-.45-.44-.64-.2-.41-.31-.38-.68-.33-.76l-.74.22c.74.8.31,1.17.92,1.84l-.16-1.35c.73.79,1.69,2.61,1.2,2.79a15.31,15.31,0,0,1-1.45-1.78c.19.32.11.84-.1.68l-.22-.58c-.48-.12.61,1.38-.32.82-.14,0-1.19-.81-.78-.32a38.67,38.67,0,0,1,4.06,4.42,10.6,10.6,0,0,1-1.73-.86c-.79-.6-1.34-1.92-2-2.43a3,3,0,0,1,.4.68c-.25-.1-.57-.71-.68-.44.7.85-.45.29.53.78,0,.4-.35,0-.54.25a6.24,6.24,0,0,1,1.44,2.37,4,4,0,0,0-.59-.55c-.45.28-1,.1-1.36.42-.21-.17-.6-.24-.85-.66.08.19.28.51.19.63-.86-.5.15-.34-.79-1,.42.48.31.91.43,1.35.72.67.49-.2.37-.64a6.33,6.33,0,0,1,1.69,3.1c-.06.51-.73-.53-.65-.34-.71.34,1.17,2.17.05,1.88a9.69,9.69,0,0,1-1.67-1.66c0-.46.74,0,.88-.12L6.46,39c-.12-.29-.11-.59.14-.49-.68-.43-1,.76-1.94.65a1.5,1.5,0,0,0,.51.81l0-.21c.6.39.42.94.81,1,.17.52.51,1.27,0,1.22l-.74-.66c.21.2.57.26.43,0,.21.41-1.31-.59-.51.45l.65.32c.17.52.7,1.47.28,1.45.79.6,0-.12.92.54-1.13-.88.58-.48-.68-1.34,1.08.8.66.14,1.65.75-.23-.22-.51-.37-.21-.43a1.48,1.48,0,0,1-.16-.25h0l0,0s0,0,0,0a2.54,2.54,0,0,1-.43-.27c-.44-.63-.13-.89-.29-1.27.21,0,.21.32.51.51l-.25-.56c.51.51,1.12.59,1.16,1.14l.25-.19c.41.16.71.1.62-.22.21,0-.28-.85,0-.35L9.26,41l.13.13c.42-.26-.08-1.57,1.22-1,0-.25,0-.53.32-.56l.47.42c0-.3.89,0,.52-.51,1.3,1.1,1-.41,1.49-.44l-.54-.62c.23-.14.26-.48.28-.94l-.49-.52c-.19-.63.87-.09,1.15-.44.16.23,0,.25-.14.18,1.47.88.06-1.63,1.2-1-.08-.28,0-.27.22-.19a.11.11,0,0,0,0,0l0,0,.37.18a1.75,1.75,0,0,0-.35-.2.72.72,0,0,0,.09-.46l.55.55s0,0,0,0c.29.13-.16-.34-.6-.74a2.18,2.18,0,0,0-.16-.47c.89.88,0-.56,1,.36-.36-.55.2-.82-.63-1.91.12.13.2.17.15.23.22,0,.44,0,.29-.35l.69.71-.6-1.22a2.44,2.44,0,0,1,1.17,1.25c-.39-1.21,0-.59-.42-1.75l.4.51c.1-.12-.27-.93.14-.58,1,.72,1.36-.92,2.74-.59-1.33-1.35.84.39-.06-.75.32.31.57.43.71.81.06-.61.95.13.4-1,.32.32.34.57.54.74,0-.09-.14-.38.07-.21s.19.33.26.52c.29-.34-.55-1.42-1.34-2.44.56.33.6.19.19-.56.32.27.7.53.59.82.16-.05,1.12-.12.48-.93.2.17.22-.08.17-.2.31-.17.4-.12.6-.41l-.18-.07c-.68-1.05.05-.39.16-.68l.08.1c1.06.29-.06-.51,1.07-.11L23.19,26c-1-1.32,1,.41.93-.31l-.38-.26c-.21-.57,1.85,1.41,2.14,1.44.12.09.09.23.11.35,1,.43-.58-.83-.43-1.26.4.38.8,1.14,1.07,1,.38.26-.53-1.85.41-1.26a1.77,1.77,0,0,1-.71-.91c.12-.29,1.58.77.94-.42a1.32,1.32,0,0,1,.24.23c-.05-.4.18-.87-.17-1.52,1.81,2,.21-1.83,1.74.1l.42-.51.14.21c.42-.13.17-.69-.08-1.24.18.07.27.29.34.4.78,0,.76-.11.39-1.39l.54.59c-.18-.45,1.45.45,1.34-.66a1.69,1.69,0,0,1,.17.33c-.06-1.17,2.59.76,1-1.71l-.09-.84c-.58.18-.7-1.06-1.18-1.29.07-.28,1,.33.86.62l-.12-.09c.84,1.27.88,0,1.5.82.8-.79,2.21-.74,3.11-1.29l-.81-.88.34-.16c.24.17.66.67.42.78.51.46,0-.7-.13-.91.7.08.66,1.21.81,1.15l.12-.2-.12-.08c-.15-.49-.44-.91-.15-1,.3.07.52.52.61.51s.09.09.11,0l.44-.19-.71-.64c-.11-.48.39-.21-.42-.93,1.23,1.12,1.76-.54,2.21-.24-.17-.72.07-.87.41-1-.19-.1-.86-.92-.53-1,1.19,1.8,1,.43,2.13,1.54-.79-.7.55-.7-.6-1.68.31,0,.49.64,1,.94,0-1,1.4-.33,1.84-1a3.14,3.14,0,0,1-.64-.95l1.16.92c0-.2-.88-1.38,0-.8-.19-.16-.46-.41-.42-.56a2.18,2.18,0,0,0,1.88-1.17c.39-.5.82-.85,1.54-.09a2,2,0,0,1,.24.3c-.29-.48-.27-.55-.2-.6a7.78,7.78,0,0,1-.41-1,3.42,3.42,0,0,0,1,.77c-.24-1,.87-.49.46-1.45l-.14.29A4.56,4.56,0,0,0,47.8,6a9.91,9.91,0,0,1-1.14-1.93c.35,1.23-1-1.23-1.26,0a1.58,1.58,0,0,0,0,.42c-.27-.22-.11-.51-.33-.8.12.68,0,.88-.45.82l0-.17c-.82.7-1.5.44-2.54.73l.55.54c-.22,0-.4-.11-.6-.19.59,1,.46-.31,1.13.8-1.22-1-1,.83-2.19-.49-.17.12.6.65.42.78L41,6.22l.33.53c-.16,0-.61-.43-.85-.75.07,0,0-.17,0-.21-.49-.34-.43.54-.6.44l.4.08c-.37.81-1.52.86-1.56,2.08l.26.26c-.07.87-.61-.05-.94.56l0-.08c.11.36.08.61-.08.68-.13-.44-.74-.49-.84-1-.09.94.08.63.54,1.95l-.43-.43c.21.52.37.76.2,1.06-.09-.56-.7-.61-.87-1.32-1.32-.67,0,1.63-1.4.27.74,1.5,1,.4,1.09.79.43.35.53,1.13.26,1.12s-1.56-1.49-2-1.15c0,0,0-.13,0-.15-.41-.23,0,.68-.58.27.49.88-.29.14.44,1.19l.22-.52c0,.42.66,1.77-.15,1.45a3.07,3.07,0,0,1-.25-.78c-.34-.22-.06.35-.41.12-.73-1,.32-.56,0-1.52-.44-.34.1,1.07-.61-.12.88,1.53-.57.12,0,1.41l-.44-.63c0,.13.15.49,0,.53l-.44-.9c.27.85-.91-.26-.86.27.47-.36.66.66,1.2,1,0,1.24-1.55-1.37-2-.58,0-.15.6.11.68.5a1.69,1.69,0,0,1-.87-.4c-.33.47.54.58.64,1.1-.7-.63,0,.47,0,.85l-.47-.62c-.78,0,.86,1.4.06,1.26l-.47-1-.06.4-.49-.74c.16.72,0,.64-.41.64.38.39.82,1.15.63,1.33-.43-.25-.37-.65-.61-.32-.22-.44-.52-1,0-.52-.14-.21-.23-.44-.36-.65-.48-.3-.47.22-.57.31a.29.29,0,0,1,.22.05l.23,1.21a1.26,1.26,0,0,1-.43-.64c0,.14.12.48,0,.63-.36-.52-.77-1-.76-1.42V15c-.2-.19-.68-.42-.77-.65-.46-.11.19,1.42-.42,1.28a.63.63,0,0,1,.09.35c-.37.12-1.11-.28-.91.67l-.9-.73c-.1.41,1.15.91,1,1.6s-.72-.66-1-.82c.2.57.65,1.7-.21,1.21C24.58,17.63,24.76,17.71,24.79,17.57Zm-3,3c0-.18-.24-.67.1-.35C22.42,21,22.1,20.71,21.83,20.6Zm-3.74,5.47c-.12-.24,0-.2.3,0C18.37,26.13,18.29,26.16,18.09,26.07ZM8.43,41.69l0,0C8.75,41.75,8.62,41.71,8.43,41.69Zm-.5,0a.7.7,0,0,0,.21.24c-.11-.16-.06-.22,0-.25C8,41.56,7.89,41.49,7.93,41.7ZM38.37,16.08,38.19,16C38.19,15.68,38.27,15.87,38.37,16.08Z"/>
          <path class="cls-1" d="M18,24.79a2.76,2.76,0,0,1,.29.3A.6.6,0,0,0,18,24.79Z"/>
          <polygon class="cls-1" points="26.59 15.6 26.6 15.6 26.53 15.48 26.59 15.6"/>
          <path class="cls-1" d="M7.71,32.92a1.07,1.07,0,0,1,.38.2C8,33,7.83,32.88,7.71,32.92Z"/>
          <path class="cls-1" d="M7.47,44l0-.3c0,.1-.2,0-.32,0C7.3,43.76,7.52,43.92,7.47,44Z"/>
          <path class="cls-1" d="M2.63,42c.05.09,0,.06,0,.15l.27.24C3,42.31,2.85,42,2.63,42Z"/>
          <path class="cls-1" d="M5.5,42.29c-.47-.45-.42-.19-.45,0l0,0C5.69,43,5.59,42.63,5.5,42.29Z"/>
          <path class="cls-1" d="M5,42.34a.13.13,0,0,1-.09.12C5.2,42.73,5.05,42.47,5,42.34Z"/>
          <path class="cls-1" d="M7.9,42.33c-.18-.06.54.64.32.48C8.74,43.47,7.9,41.72,7.9,42.33Z"/>
          <polygon class="cls-1" points="3.89 40.85 4.5 41.39 4.11 40.86 3.89 40.85"/>
          <path class="cls-1" d="M5.25,40.35l-.35,0a.38.38,0,0,1,.14.25C5.18,40.53,5.42,40.52,5.25,40.35Z"/>
          <path class="cls-1" d="M5,40.63a.16.16,0,0,0-.06.24A.3.3,0,0,0,5,40.63Z"/>
          <polygon class="cls-1" points="3.98 40.42 4.16 40.49 4.33 40.4 3.98 40.42"/>
          <path class="cls-1" d="M7.44,38.49l.06-.37c-.17-.22-.34-.29-.35-.14S7.22,38.32,7.44,38.49Z"/>
          <path class="cls-1" d="M5.28,37.48a2.56,2.56,0,0,1,.51.36l-.68-.74Z"/>
          <path class="cls-1" d="M5.75,36.72c-.17-.22-.23-.87-.47-.57C5.45,36.37,5.39,36.74,5.75,36.72Z"/>
          <polygon class="cls-1" points="9.88 34.67 9.83 34.73 10.93 35.95 9.88 34.67"/>
          <path class="cls-1" d="M10.25,29.12c-.53-.07.6.82,0,.66.19.35.45.13.61.44C10.79,29.77,11,29.88,10.25,29.12Z"/>
          <path class="cls-1" d="M10.9,30.22a2.38,2.38,0,0,0,.08.26A1.15,1.15,0,0,0,10.9,30.22Z"/>
          <polygon class="cls-1" points="49.41 9.42 49.89 9.54 49.43 9.17 49.41 9.42"/>
          <path class="cls-1" d="M49.41,8l.59.86-.33-.93C49.64,8,49.57,8.18,49.41,8Z"/>
          <path class="cls-1" d="M20,19.36l.14.2c.2.19.25.17.36.14Z"/>
          <polygon class="cls-1" points="22.89 18.04 22.84 18.06 23.5 18.74 22.89 18.04"/>
          <path class="cls-1" d="M24.15,15.48c-.11,0-.07.28-.18.32C24,15.52,24.9,16.39,24.15,15.48Z"/>
        </g>
      </g>
    </g>
  </g>
</svg>
