<svg xmlns="http://www.w3.org/2000/svg" width="50" height="51.55" viewBox="0 0 50 51.55">
  <title>Ресурс 2@</title>
  <g id="Слой_2" data-name="Слой 2">
    <g id="Слой_1-2" data-name="Слой 1">
      <g>
        <g>
          <path d="M6.76,42c-.12-.2-.58.37-.69.44C6.47,42.58,6.89,41.85,6.76,42Z"/>
          <polygon points="10.65 43.11 10.43 43.31 11.27 43.03 10.65 43.11"/>
          <path d="M13.48,44.9c.31-1.24-1.14-.43-1.44-1.12l.07-.29-.77.7C12.07,44.44,13.2,44.35,13.48,44.9Z"/>
          <path d="M14,48.11c.08-.49.55-.2-.36-.33a.44.44,0,0,1,0,.15A1.12,1.12,0,0,1,14,48.11Z"/>
          <path d="M13.7,47.93c-.37-.14.07.47,0,0Z"/>
          <path d="M15.48,48.35l-.64.23c0,.3.42.52.18.65C15.62,49.19,15.6,48.88,15.48,48.35Z"/>
          <path d="M16.23,47.65l-.3.09C15.93,47.87,16,47.93,16.23,47.65Z"/>
          <path d="M15.28,47.92l.65-.18c0-.21.13-.59-.29,0C15.81,47.46,15.59,47.75,15.28,47.92Z"/>
          <path d="M15.05,47.64c-.17-.34-.42-.65.19-.86C14.33,46.56,14.09,47.43,15.05,47.64Z"/>
          <path d="M14.21,43.83c0-.15-.08-.3-.12-.47l-.44.22C13.87,43.48,14.05,44.19,14.21,43.83Z"/>
          <path d="M18.39,49.87c.08-.25,0-.72,0-1.06L18,49C18.12,49.24,18.45,49.49,18.39,49.87Z"/>
          <path d="M18.42,48.81l.63-.31C18.59,48.34,18.45,48.52,18.42,48.81Z"/>
          <polygon points="16.75 46.38 15.62 46.99 16.91 46.42 16.75 46.38"/>
          <polygon points="20.55 50.31 20.13 50.86 20.85 50.03 20.55 50.31"/>
          <path d="M22,50.38c-.3.49.26.87,0,1.17a2.2,2.2,0,0,0,1.13-.86C22.78,50.89,22.43,50.82,22,50.38Z"/>
          <path d="M23.65,50.15a3.41,3.41,0,0,0-.53.54A1.6,1.6,0,0,0,23.65,50.15Z"/>
          <path d="M19.94,48.81a1.11,1.11,0,0,0,.31.81l-.1-.77Z"/>
          <path d="M20.15,48.83v0l.46.11Z"/>
          <path d="M19.89,48.8h.05C19.93,48.73,19.93,48.71,19.89,48.8Z"/>
          <path d="M17.86,47.43c.42-.32,1.12-.61.7-1.36C18.22,46.51,18.47,46.94,17.86,47.43Z"/>
          <path d="M19.8,47.85a5.29,5.29,0,0,1-.52-.29c0,.19,0,.5-.18.66C19.34,48.1,19.56,48,19.8,47.85Z"/>
          <polygon points="20.11 47.66 19.8 47.85 19.99 47.94 20.11 47.66"/>
          <path d="M22.66,49.41a1.14,1.14,0,0,1,.86-.36,2.45,2.45,0,0,0-1-.27C22.47,49,22.3,49.42,22.66,49.41Z"/>
          <path d="M21.44,49.1l.06,0C21.47,49,21.44,49,21.44,49.1Z"/>
          <path d="M26.56,49l-.06-.13V49Z"/>
          <path d="M22.49,48.64c-.23-.16-.39,0-.56.23a1.75,1.75,0,0,1,.6-.09C22.56,48.67,22.57,48.6,22.49,48.64Z"/>
          <path d="M24.53,49.82a3.44,3.44,0,0,0-.44-.41C24.22,49.66,24.49,50,24.53,49.82Z"/>
          <path d="M21.56,49.28l0,0C21.58,49.47,21.58,49.4,21.56,49.28Z"/>
          <path d="M21.56,49.28a1.64,1.64,0,0,0,.37-.41,1.38,1.38,0,0,0-.43.19C21.52,49.12,21.54,49.2,21.56,49.28Z"/>
          <path d="M26.87,44.15c.06.67-.43,1.42-1,.69-.43.53,0,2.78.6,4a1.12,1.12,0,0,1,.47-1c-.24-.32-1.26-.78-.87-1.42.65-.39.58.18,1,.5-.37-.81.69-1.35.35-2.58l-.49.52C26.89,44.64,27,44.3,26.87,44.15Z"/>
          <path d="M25.41,48.83l-.23.1c.27.1.48.37.88.89A1.13,1.13,0,0,0,26.5,49l-1.16,0Z"/>
          <path d="M24.13,49c.19-.72.72-1.09.38-1.87-.63.06-.45.61-.85.93,1.08-.14-.32.4.46.86a2,2,0,0,1-.6.17,3.41,3.41,0,0,1,.57.36l0,0h0c0-.1-.06-.16,0-.1l0,0a1.86,1.86,0,0,1,.05-.27c.32.16.05.19-.05.27l0,.12h0c.37-.12.75-.3,1.11-.44A2.09,2.09,0,0,0,24.13,49Z"/>
          <path d="M19.46,44.64a.46.46,0,0,1,0,.17C19.53,44.74,19.56,44.68,19.46,44.64Z"/>
          <path d="M19.74,45.17c-.09.08-.21.36-.42.23s.08-.35.13-.59c-.18.16-.6.41-.26.86l.09-.08a2.8,2.8,0,0,1,.57,1.47A10,10,0,0,0,19.74,45.17Z"/>
          <path d="M21.8,47a9.06,9.06,0,0,0,.88-.29L22.31,46v.39C21.84,46.22,21.9,46.69,21.8,47Z"/>
          <path d="M26.7,49.34l-.05.8c.15-.38.3-.79.43-1.18Z"/>
          <polygon points="27.91 49.08 27.96 49.77 28.22 49.31 27.91 49.08"/>
          <path d="M28.43,8.08l-.22.14A.44.44,0,0,0,28.43,8.08Z"/>
          <path d="M29.69,8.5l.14-.31C29.71,8.35,29.64,8.47,29.69,8.5Z"/>
          <path d="M48.7,29.94c.72-.24,1.8-.51,1-.61l-.77,0A.57.57,0,0,1,48.7,29.94Z"/>
          <path d="M41.45,12.78l-.14.2.72-.2Z"/>
          <path d="M38.74,14.35l.18-.58A1.72,1.72,0,0,0,38.74,14.35Z"/>
          <path d="M21.39,8.61l-.05.79C21.63,9.34,21.43,9,21.39,8.61Z"/>
          <path d="M39.21,44.1a1.73,1.73,0,0,0,1-.16C39.57,43.86,38.92,43.54,39.21,44.1Z"/>
          <path d="M31.16.53a.56.56,0,0,0-.35.39C31,.83,31.14.72,31.16.53Z"/>
          <path d="M40.94,43.28a1.07,1.07,0,0,0-.25,0,1.21,1.21,0,0,1-.51.67C40.63,44,41,43.9,40.94,43.28Z"/>
          <path d="M8.12,27.34a.6.6,0,0,1-.08.08C8.15,27.4,8.14,27.38,8.12,27.34Z"/>
          <path d="M5.18,38.78a1.45,1.45,0,0,1-.32-.33C4.87,38.55,5,38.66,5.18,38.78Z"/>
          <path d="M32.79,48.22c-.23.13,0,.09,0,0Z"/>
          <path d="M30.73,45.78a.73.73,0,0,0,0-.38A.86.86,0,0,1,30.73,45.78Z"/>
          <path d="M39.39,38.28v0C39.25,38.21,39.28,38.22,39.39,38.28Z"/>
          <path d="M32.31,48a1,1,0,0,0,.38.1A1.61,1.61,0,0,0,32.31,48Z"/>
          <path d="M32.47,48.34h-.24C32.24,48.48,32.29,48.54,32.47,48.34Z"/>
          <path d="M33.12,48.05a.8.8,0,0,1-.43.07c.07,0,.1.07.1.1Z"/>
          <path d="M9.63,13H9.55C9.69,13.29,9.7,13.2,9.63,13Z"/>
          <polygon points="41.55 23.55 41.58 23.57 41.61 23.54 41.55 23.55"/>
          <path d="M41,23c.94.2.84.38.65.59l2.15-.32C42.83,23.11,41.89,23,41,23Z"/>
          <path d="M25.29,7.81l.37.69c-.58,1.09-.86.69-.57,1.65.09-1.16.49-1.24.88-1.24s.78,0,1-1.16l.19.53c-.07,0-.11.1-.18.07.32,1.17.71-1.62,1.38-1.11a.6.6,0,0,1,.06.84l.71-.43c.15.08,0,.46-.16.38.3,0,.58.07.88.1l0,.06a6.27,6.27,0,0,1,.93-.93c.09.4-.2.2-.25.49.22-.12.45-.25.68-.36-.05.65-.64,1-.92.86-.44,2.32.61-.43.92,1.24l-.51.09c-.3,1.33.18,1,.21,1.94.14-.41.08-2.26.78-2.59.06.23.19.37.66.08-.39.74-.07.69.24.82l-.57.95c.45-.1.72-.6,1.17-.91.3.3-.1,1.05-.44,1.71.39.51.42-1.4,1.14-1.13.18.69.77.48,1.7.43,0,.56-.5.47-.6.81l.84-.44c0,.07-.16.26-.26.35.45-.06.76-.81,1.32-.7.47-.4.37.09.27.6s-.17,1.06.55.82c-.14.31-.56.4-.85.71a10.65,10.65,0,0,0,2.32-.16l-.24.9c.42-.83,1.53-1,2.53-1a8.69,8.69,0,0,0,.51-.86,10,10,0,0,1,1,.42c-.1.19-.47.31-.93.44h.31c-.19.49-.82.68-1.45.83l.42-.63a6,6,0,0,0-1.92.88.6.6,0,0,1,.4,0,1.11,1.11,0,0,0-.41.2c-.09.09.17,0,.47,0l-1,.81.43-.23-.18,1.21c1.44-.06,3.32-.24,4.32.74a7.38,7.38,0,0,0-2.4.87c.94-.73-.81-.6-.82-1.2,0,.33-.48.49-.66.5.44.14.89.3,1.36.48-.82.31-.51.44-.78.82,1.55-.82,1.33.31,2,.55-.55.19-1.15.28-1.18-.23-1.07.91,2.21.06,1.27.95,0-.12,0-.21-.27-.18a.47.47,0,0,1-.19.92l0-.12c.06.83.4,2.43,1.9,2.46-.19,0-1.77,0-2.08,0a35.08,35.08,0,0,1,5,1.33c-1.28-.1-4.27.44-5-.21-.18.2-.34.42.08.82.19-.12,1.85-.33,2-.14a12.23,12.23,0,0,0-2,.93c.28-.18,2.26.14,2.18.49-.3-.07-2-.12-2.16-.25.64.3,1.28.63,1.87,1a4.67,4.67,0,0,0-2.21-.11c.39,0-.13.64,0,.87l.5-.25c-.4.8,2.54,1.38,2.2,2.35-.35-.22-2.34-.86-2.68-.49,1,.42,4.36,2.24,4.72,3.52l-.6,0c.12.31.24.64.33.95C44.63,32.15,42,29.94,41,29.13c-.54.17-.68-.11-.78.34a.65.65,0,0,1-.68-.61l-.66.85c1.13.37.81,1.18,1.69,1.53a12.11,12.11,0,0,0-.69-1.56c1.1.29,2.91,1.84,2.29,2.6-.51,0-1.82-1-2.18-1.14.32.25.37,1,.08,1l-.42-.58c-.56.18,1.08,1.37-.19,1.3-.16.13-1.56-.3-1,.08a26.22,26.22,0,0,1,5.6,3.19,6.27,6.27,0,0,1-2.43.21c-1-.33-1.73-1.83-2.65-2.1a2,2,0,0,1,.54.69c-.35,0-.76-.64-.9-.21.91.76-.61.67.68.77,0,.55-.45.24-.75.66a3.91,3.91,0,0,1,1.55,2.66,2.51,2.51,0,0,0-.73-.49c-.73.7-1.55.59-2.21,1.2-.24-.15-.78-.14-1-.66,0,.24.2.62,0,.8-1-.5.38-.47-.69-1.21.4.56,0,1.15,0,1.73.7.79.86-.38.89-.93a4.07,4.07,0,0,1,.79,4c-.51.8-.82-.58-.83-.32-1.46.53.12,3-1.64,2.63-.89-.62-.82-1.66-1.23-2.22.43-.57,1.17.09,1.54-.18L34.33,43c0-.38.28-.79.61-.68-.73-.49-2.26,1.06-3.6.7-.07.35-.29.77,0,1.07l.29-.24c.59.59-.3,1.21.26,1.38-.3.65-.62,1.71-1.48,1.45l-.41-1c.09.3.63.5.74.13-.19.54-1.43-1.12-1.42.31l.67.59c-.38.63-.83,2-1.61,1.7.51,1,.14-.14.87,1C28.51,48,31.06,49,30,47.6c.84,1.25,1,.41,2,1.34-.13-.33-.43-.56.2-.59a1.79,1.79,0,0,1,0-.34h.05l-.05,0c0-.06,0-.07,0,0a1.13,1.13,0,0,1-.46-.4c0-.87.9-1.14,1-1.63.38,0,0,.42.32.71.07-.25.14-.5.2-.76.32.71,1.36.8.77,1.58l.71-.29c.59.2,1.26.09,1.45-.38.41,0,.38-1.22.4-.53l.79-1,.11.16c.55-.25.85-.9,1.25-1.38a2,2,0,0,1,1.86-.77,1.72,1.72,0,0,1,.94-1.15l.57.4c.21-.5,1.56-.69,1.2-1.32,1.78.8,1.94-1.74,2.71-2.3l-.71-.52a3.6,3.6,0,0,0,.56-2l-.7-.35c-.21-.82,1.25-1.18,1.62-2.17.24.18.06.39-.18.48,1.07-.19,1-1,.88-1.68s-.34-1.42.4-1.78c-.21-.34-.07-.51.17-.65a.12.12,0,0,0,0,.08.36.36,0,0,0,0-.11,4.76,4.76,0,0,0,.49-.28,1.55,1.55,0,0,0-.48.22,1.9,1.9,0,0,0-.1-.9l.85,0v-.08c.37-.25-.33-.32-1-.28a1.63,1.63,0,0,0-.42-.5c1.36,0-.33-.86,1.14-1-.34-.15-.41-.55-.59-1a1.54,1.54,0,0,0-1.24-.91c.19,0,.29-.08.29.08.18-.32.37-.65,0-1l1.06-.12c-.45-.26-.93-.5-1.42-.73.63-.43,1-.66,1.83-.22-1.31-1-.51-.89-1.81-1.68l.69,0c-.07-.33-1.06-.71-.52-1,1.25-.95-.47-3.51-.05-5.68-1.73,1.09.5-1.18-1-.63.4-.29.53-.66,1-.53-.85-.7,0-1.76-1.48-1.72.36-.33.72-.15.92-.37-.14,0-.53-.08-.33-.31s.42-.07.69,0c-.62-.9-1.93-.2-3.13.47.31-.77.08-.94-.87-.7.27-.38.49-.89,1-.5-.14-.3-.72-2.11-1.61-1.42.14-.25-.25-.4-.41-.38a4.62,4.62,0,0,0-1-1.19v.27c-1.14.72-.63-.21-1.18-.49l.11-.09c-.38-1.61-.69-.06-1-1.74l-.46.7C37,8,37.86,5.09,36.81,5.17l0,.56c-.64.28.31-2.66,0-3.12,0-.19.26-.13.44-.16-.54-1.54-.68.86-1.56.64.13-.6.9-1.22.4-1.61-.11-.57-2.41,1-2.72-.36,0,.48,0,.95-.5,1.14-.59,0-1-2.2-2-1a.67.67,0,0,1,0-.37c-.57.23-1.65.22-2.06.92C28.83.38,28,.63,27.31.9S26,1.55,26.08.23L24.62.3l0-.27c-.94-.19-1.26.5-1.54,1.14C22.9,1,23,.74,23.05.6,21.68.12,21.49.32,20.62,1.77L20.36.93c-.17.5-2.22-.93-3.26.43a.77.77,0,0,1,0-.42c-.55.74-1.6.43-2.48.46s-1.54.28-1.07,1.79a11.44,11.44,0,0,0-.48,1.14c1.16-.39.51,1.28,1.18,1.49-.28.37-1.47-.23-1.07-.65l.15.09c-.63-1.52-1.59.25-2.15-.67-2,1.43-4.37,2.47-6,4.31l1.15.58c-.19.19-.36.4-.54.59-.36,0-1-.36-.57-.81-.76-.18-.11,1.17.11,1.33-1.09.63-.93-1.22-1.16-1L4,10.08h.19c.2.63.6.93.2,1.5-.44.24-.78-.22-.91-.09-.08-.05-.15,0-.18.21l-.63.87,1.09.12c.2.63-.52.8.71.93-.94-.13-1.47.69-1.86,1.51S2.11,16.87,1.77,17a2.1,2.1,0,0,1,.08,2.11c.25-.14,1.37,0,1.09.58C.69,19,1.73,20.62,0,20.94c1.14-.34.05,1.95,1.7,1.33-.22.53-.87,0-1.44.35.81,1.36-.66,3-.13,4.69.31,0,.73-.35,1.23-.06C.92,27.6.46,28,0,28.35c.21.31,1.75,0,.86.77.23-.14.58-.33.72-.14-.38,1.71.41,3.27,1.21,4.7a8.53,8.53,0,0,1,1.42,5c.2-.72.43-.5.65-.24,0-.26.62-.44.92-.72,0,.58-.09,1.2-.08,1.8,1-.55,1,1,2,.41l-.43-.18c1.31-.49,1.63-2.48,3-3.48-.74.29-.55-.33-.39-.92s.24-1.1-.87-.84c.17-.34.53-.18.79-.47-.72.25-1,.09-.93-.48l.18,0c-.83-1-.43-1.87-.52-3.29l-.73.4c0-.33.22-.48.37-.68-1.29.08.21.83-1.17,1,.71-.51.54-1,.4-1.52s-.16-1,.72-1.37c-.1-.44-.89.35-1-.11l.47-.22-.68,0c0-.33.67-.6,1.09-.68,0,.08.14.18.19.24.55-.47-.35-1-.17-1.16l-.26.46c-.7-1.18,0-2.67-1-3.95l-.39.07c-.63-1.05.53-.72.33-1.8l.08.05c-.36-.28-.47-.6-.36-.87.39.35,1-.29,1.39.16-.5-1.16-.49-.61-1.67-1.7l.67,0c-.48-.41-.76-.53-.73-1.12.37.61,1,0,1.56.72.83-.27.63-.75.53-1.16S8,16.34,9,16.57c-1.38-1.25-1.29.44-1.52,0-.64,0-1-1-.7-1.23s2.33.49,2.72-.24c-.06.07.06.14,0,.21.55,0-.23-.89.64-.79-.75-.79.35-.37-.72-1.23l-.23.85c0-.56-1-1.9.06-2.1a3,3,0,0,1,.39.9c.46.07,0-.53.53-.44,1,.9-.36,1,.19,2,.6.16-.27-1.31.78-.23-1.3-1.44.66-.49,0-1.85l.58.58c0-.15-.19-.55-.06-.67l.58.95c-.35-1,1.13-.1,1.1-.7-.64.6-.85-.59-1.55-.74.11-1.61,2,1.1,2.59,0-.05.18-.77,0-.83-.43a1.61,1.61,0,0,1,1.11.28c.54-.61-.62-.6-.64-1.2.83.63.08-.57.22-1.08l.48.69c1.09-.09-.74-1.61.4-1.54l.27,1.19.24-.49.4.87c.06-.84.28-.82.83-.76-.37-.48-.63-1.38-.22-1.6.48.32.18.79.69.42.08.54.24,1.19-.33.61.09.26.11.53.2.78.52.39.73-.2.92-.3a.32.32,0,0,1-.28-.08,11.09,11.09,0,0,1,.37-1.4.89.89,0,0,1,.21.79c.14-.14.12-.54.35-.7.16.67.39,1.33.18,1.74l.5-1c.14.25.61.64.59.91.49.31.68-1.53,1.38-1.13a.57.57,0,0,1,.15-.38c.6.1,1.12.78,1.7-.14l.43,1.2c.49-.3-.58-1.51.28-2,.63-.42.24,1,.45,1.36.28-.59.91-1.81,1.41-.8C25.6,7.91,25.47,7.72,25.29,7.81Zm6.38,1.1c-.2.11-.65.5-.53,0C31.67,8.1,31.59,8.57,31.67,8.91Zm9,5.69c-.29.05-.26-.16-.08-.48C40.72,14.2,40.77,14.35,40.67,14.6ZM35.15,46.49v0C35.68,46.56,35.49,46.51,35.15,46.49Zm-.93,0a.35.35,0,0,0,.1.33c0-.21.14-.31.36-.35C34.54,46.34,34.38,46.25,34.22,46.53ZM3.67,11.73l.27,0C4,12.14,3.82,11.94,3.67,11.73Z"/>
          <path d="M39.05,14.17a3.39,3.39,0,0,1,.34-.31A.48.48,0,0,0,39.05,14.17Z"/>
          <path d="M21.4,8.47h0a.76.76,0,0,0,0,.15Z"/>
          <path d="M38.5,34.15a1.06,1.06,0,0,1,.5.05A.4.4,0,0,0,38.5,34.15Z"/>
          <path d="M30.26,49.35l.51-.35c-.26.11-.4,0-.56-.14C30.26,49.05,30.44,49.29,30.26,49.35Z"/>
          <path d="M25.1,44.85c-.06.11-.14,0-.2.13l0,.39C25.22,45.33,25.41,45,25.1,44.85Z"/>
          <path d="M29.16,46.76c-.19-.69-.44-.35-.77-.18a.07.07,0,0,1,.06,0C28.52,47.55,28.86,47.18,29.16,46.76Z"/>
          <path d="M28.31,46.61a.6.6,0,0,1-.32.07C28,47.07,28.14,46.74,28.31,46.61Z"/>
          <path d="M33.4,47.39c-.24-.11.21.88,0,.65C33.54,49,34.18,46.6,33.4,47.39Z"/>
          <polygon points="28.42 44.55 28.71 45.38 28.75 44.65 28.42 44.55"/>
          <path d="M31.1,44.48l-.58,0a.34.34,0,0,1-.05.33C30.79,44.68,31.19,44.72,31.1,44.48Z"/>
          <path d="M30.47,44.76c-.17,0-.32.09-.38.25A.8.8,0,0,0,30.47,44.76Z"/>
          <polygon points="29.05 44.13 29.24 44.27 29.61 44.25 29.05 44.13"/>
          <path d="M36.35,42.09l.33-.55c-.13-.27-.36-.33-.46-.11S36.12,41.91,36.35,42.09Z"/>
          <path d="M33.66,40.94a1.82,1.82,0,0,1,.53.46l-.52-.94Z"/>
          <path d="M34.83,40c-.11-.29.11-1.14-.36-.71C34.6,39.51,34.31,40,34.83,40Z"/>
          <polygon points="41.4 35.14 41.34 35.27 42.83 36.22 41.4 35.14"/>
          <path d="M40,27.5c-.54.41,1,.35.4.71.37.22.52-.3.84-.09C40.93,27.7,41.21,27.59,40,27.5Z"/>
          <path d="M41.28,28.12a2,2,0,0,0,.21.24A.88.88,0,0,0,41.28,28.12Z"/>
          <polygon points="5.64 40.83 5.72 41.46 5.93 40.81 5.64 40.83"/>
          <path d="M7.26,40.66l-.73.87L7.46,41C7.35,41,7.13,40.89,7.26,40.66Z"/>
          <path d="M31.43,11.34l.16-.22c.1-.28,0-.34-.06-.46Z"/>
          <polygon points="27.76 9.05 27.83 9.09 27.92 8.06 27.76 9.05"/>
          <path d="M24.12,10c.14,0,.3-.19.44-.14C24.27,10,24.07,8.69,24.12,10Z"/>
        </g>
        <g>
          <path d="M2.18,35.47c-.57,0-.62.66-1,.56a2.25,2.25,0,0,0,1.31.55C2.12,36.39,2,36,2.18,35.47Z"/>
          <path d="M3.2,36.77a3.32,3.32,0,0,0-.73-.19A1.68,1.68,0,0,0,3.2,36.77Z"/>
          <path d="M3.35,35.54a1.12,1.12,0,0,1,.74.56,2.36,2.36,0,0,0-.25-1C3.61,35.18,3.16,35.23,3.35,35.54Z"/>
          <path d="M5.67,38.71l.08-.12-.11.06Z"/>
          <path d="M3.93,37.37a3.87,3.87,0,0,0,.13-.59C3.91,37,3.74,37.43,3.93,37.37Z"/>
          <path d="M10,36.56c-.55.39-1.45.34-1.08-.49-.68-.1-2.41,1.38-3.18,2.52a1.14,1.14,0,0,1,1.14-.11c.16-.37.05-1.49.8-1.46.66.36.13.58,0,1.08.51-.73,1.52-.08,2.4-1L9.44,37C9.6,36.82,10,36.79,10,36.56Z"/>
          <path d="M5.22,37.64,5,37.49a2.6,2.6,0,0,1-.34,1.2,1.11,1.11,0,0,0,.95,0l-.55-1Z"/>
          <path d="M4.47,36.59c.73-.19,1.3.08,1.82-.6-.37-.52-.76-.09-1.23-.28.66.87-.51-.07-.52.83a1.72,1.72,0,0,1-.45-.44,2.61,2.61,0,0,1,0,.68l0,0h0c.05-.09.1-.13.08-.06l0,0a1.48,1.48,0,0,1,.27-.1c0,.36-.15.14-.27.1l-.1,0h0c.29.27.63.5.94.75A2.19,2.19,0,0,0,4.47,36.59Z"/>
          <path d="M5,33.59a6.82,6.82,0,0,0,.69.61l.39-.65-.34.18C5.71,33.24,5.33,33.52,5,33.59Z"/>
          <path d="M5.43,39l-.72.35c.4,0,.83-.13,1.23-.21Z"/>
          <polygon points="6.25 39.92 5.69 40.31 6.21 40.31 6.25 39.92"/>
          <path d="M33.22,48.39c.56.51,1.34,1.31,1,.59l-.35-.67A.57.57,0,0,1,33.22,48.39Z"/>
          <path d="M16.21,47.23a1.83,1.83,0,0,0,.62.77C16.6,47.42,16.55,46.7,16.21,47.23Z"/>
          <path d="M17.79,48.32c0-.09-.08-.14-.12-.22a1.29,1.29,0,0,1-.84-.1C17,48.42,17.29,48.7,17.79,48.32Z"/>
          <path d="M9.44,43.72c-.23-.13-.09,0,0,0Z"/>
          <path d="M10.52,40.73a.76.76,0,0,0,.32-.21A1,1,0,0,1,10.52,40.73Z"/>
          <path d="M9.37,43.21a1,1,0,0,0,.1.38A1.23,1.23,0,0,0,9.37,43.21Z"/>
          <path d="M9.17,43.51l-.12-.21C8.94,43.37,8.91,43.45,9.17,43.51Z"/>
          <path d="M9.74,43.93a1,1,0,0,1-.27-.34c0,.08,0,.12,0,.13Z"/>
          <path d="M45.35,37.31c.83,0,.9-.3.29-1.07.47.09,1,.08.85.7.22-.25,1.65-1.51.66-2a.21.21,0,0,0,.14,0l-2.4-.27c-.33.33-.64.67-1,1h0a8.16,8.16,0,0,0,1,.13,9.78,9.78,0,0,1,0,1.08c-.22,0-.48-.3-.78-.67l.13.28a1.15,1.15,0,0,1-.8-.37c-.7.67-1.41,1.32-2.12,2a2.26,2.26,0,0,1-.13,1,2.69,2.69,0,0,0-.34-.53q-2.09,1.91-4.2,3.79a4.77,4.77,0,0,1-1,.65c.08.61.16,1.21.21,1.83a12.81,12.81,0,0,0-.76-1.61,5.87,5.87,0,0,1-2.56.33,4.21,4.21,0,0,1-.68.34,4.32,4.32,0,0,1-1.69.53.46.46,0,0,1-.36.25s0-.12,0-.2a4.74,4.74,0,0,1-.84-.05c-.19,1.37-.54,2.85-1.13,3.33l-.22-.56a9.3,9.3,0,0,1-.74.68c.3-.87.76-2.35,1.16-3.68-.17-.06-.35-.11-.51-.18-.76.5-1.49,1-2.23,1.56v0a4.39,4.39,0,0,1-1.45.76,5.4,5.4,0,0,1-.28,1.17,8.38,8.38,0,0,1-.65-1,5.77,5.77,0,0,1-5.35-2.73,5.33,5.33,0,0,1-1.33,0,4.67,4.67,0,0,1-.67-.14,3,3,0,0,1-1.25.32c-.69-.11-.25-.6-.07-.81a3.48,3.48,0,0,1-.54-.38c-1-.13-2.16,1.31-2.49-.15a2.84,2.84,0,0,1,1.15-1.57A5.5,5.5,0,0,1,12,38.45c-.32,0-.66.08-.8.39l.34.18c-.3.77-1.23.2-1.16.79-.71,0-1.81.11-1.93-.78l.75-.77c-.24.2-.2.78.18.73-.57,0,.45-1.77-.85-1.18l-.27.85c-.74-.09-2.12,0-2.2-.79-.7.86.17.07-.56,1.19,1-1.23,1.07,1.52,1.93,0-.81,1.28,0,1.09-.42,2.39.25-.24.34-.62.63,0A1.35,1.35,0,0,1,8,41.28v0c.06,0,.07,0,0,0a1.06,1.06,0,0,1,.19-.58c.8-.32,1.4.36,1.91.29.11.37-.39.18-.52.58l.76-.12c-.51.58-.18,1.57-1.13,1.34l.55.53c0,.63.43,1.2.93,1.18.2.36,1.27-.14.65.16l1.25.31-.1.17a4.42,4.42,0,0,0,1.76.59,2,2,0,0,1,1.45,1.39,1.73,1.73,0,0,1,1.43.4l-.14.68c.55,0,1.26,1.16,1.69.57,0,2,2.38,1.08,3.2,1.57l.19-.86a3.66,3.66,0,0,0,2-.28l0-.78c.67-.53,1.58.66,2.63.6-.07.3-.33.22-.51,0,.61.91,1.3.58,1.9.14s1.16-.88,1.79-.35c.23-.33.43-.26.66-.1a.06.06,0,0,0-.06.05h.11a5.48,5.48,0,0,0,.46.34,1.45,1.45,0,0,0-.4-.35,2.14,2.14,0,0,0,.78-.45l.31.79.07,0c.38.24.16-.43-.14-1a1.63,1.63,0,0,0,.29-.59c.56,1.24.65-.65,1.36.65,0-.37.35-.6.64-.92a1.56,1.56,0,0,0,.35-1.51c.07.18.19.23,0,.3.36,0,.74.08.86-.42l.54.93c0-.52.09-1,.1-1.59.65.4,1,.64.93,1.58.44-1.61.61-.82.81-2.32l.3.62c.27-.2.23-1.25.68-.87,1.38.76,3-1.83,5.19-2.32-1.7-1.15,1.27,0,.18-1.17.42.25.8.22.9.74.3-1.06,1.62-.66,1-2,.45.19.43.6.72.69,0-.14-.14-.52.15-.43s.23.36.3.62C47.61,39.06,46.45,38.14,45.35,37.31Z"/>
          <path d="M12.11,44.91l0,0C12.31,45.4,12.26,45.21,12.11,44.91Z"/>
          <path d="M11.62,44.12a.33.33,0,0,0-.24.26c.17-.14.33,0,.48.14C11.94,44.3,11.94,44.12,11.62,44.12Z"/>
          <path d="M7.2,42.1l.55.27c-.22-.17-.16-.37-.16-.56C7.46,42,7.33,42.22,7.2,42.1Z"/>
          <path d="M8.52,35.38c-.13,0-.09-.11-.22-.11L8,35.49C8.17,35.72,8.54,35.72,8.52,35.38Z"/>
          <path d="M8.89,39.85c.5-.51.09-.55-.23-.76,0,0,0,0,0,0C7.88,39.7,8.38,39.8,8.89,39.85Z"/>
          <path d="M8.6,39a.51.51,0,0,1-.22-.24C8.05,39,8.4,39,8.6,39Z"/>
          <path d="M10.46,43.84c0-.26-.66.62-.56.33C9.18,44.74,11.54,44.12,10.46,43.84Z"/>
          <polygon points="10.43 38.11 9.86 38.77 10.51 38.44 10.43 38.11"/>
          <path d="M11.83,40.4l-.24-.53a.33.33,0,0,1-.31.12C11.51,40.23,11.67,40.6,11.83,40.4Z"/>
          <path d="M11.28,40c-.12-.13-.24-.24-.41-.21A.79.79,0,0,0,11.28,40Z"/>
          <polygon points="11.11 38.44 11.09 38.68 11.29 38.99 11.11 38.44"/>
        </g>
      </g>
    </g>
  </g>
</svg>
